<?xml version="1.0" encoding="utf-8"?>
<!-- Generator: Adobe Illustrator 19.0.0, SVG Export Plug-In . SVG Version: 6.00 Build 0)  -->
<!DOCTYPE svg PUBLIC "-//W3C//DTD SVG 1.1//EN" "http://www.w3.org/Graphics/SVG/1.1/DTD/svg11.dtd">
<svg version="1.1" id="Calque_1" xmlns="http://www.w3.org/2000/svg" xmlns:xlink="http://www.w3.org/1999/xlink" x="0px" y="0px"
	 viewBox="0 0 29.9 30.6" enable-background="new 0 0 29.9 30.6" xml:space="preserve">
<path id="XMLID_7_" fill="#D4471B" d="M14.9,0C23,0,29.6,6.7,29.6,14.9c0,8.2-6.6,14.9-14.7,14.9c-8.1,0-14.7-6.7-14.7-14.9
	C0.3,6.7,6.9,0,14.9,0z"/>
<g id="XMLID_6_">
	<defs>
		<path id="XMLID_3_" d="M14.9,0C23,0,29.6,6.7,29.6,14.9c0,8.2-6.6,14.9-14.7,14.9c-8.1,0-14.7-6.7-14.7-14.9C0.3,6.7,6.9,0,14.9,0
			z"/>
	</defs>
	<clipPath id="XMLID_149_">
		<use xlink:href="#XMLID_3_"  overflow="visible"/>
	</clipPath>
	<g id="XMLID_2_" clip-path="url(#XMLID_149_)">
		<g id="XMLID_5_">
			<g id="XMLID_62_">
				<path id="XMLID_63_" fill="#FFFFFF" d="M22.5,11.8c-0.3-0.8-0.7-1.3-1.2-1.7c-0.5-0.4-1-0.7-1.6-0.8c-0.5-0.1-1-0.2-1.5-0.2
					c-0.1,0-0.2,0-0.2,0c-0.3,0-0.5,0-0.7,0l0.6-17c0-0.8-0.7-1.5-1.5-1.5l-2.3,0c-0.8,0-1.5,0.7-1.5,1.5l0.5,17
					C12.6,9.1,12.3,9,12,9c-0.1,0-0.2,0-0.2,0c-0.5,0-1,0.1-1.5,0.2C9.7,9.3,9.1,9.6,8.6,10c-0.5,0.4-0.9,1-1.2,1.7
					c-0.3,0.8-0.5,1.8-0.5,3l0,7.5c0,0,0,0,0,0c0.4,0.1,0.7,0.1,1,0.2c0,0,0,0,0,0c0.3,0,0.6,0,0.8,0c0,0,0,0,0,0s0,0,0,0
					c0.2,0,0.5,0,0.8,0c0,0,0,0,0,0c0.3,0,0.6-0.1,1-0.2l0-5c0-0.9,0.1-2.6,0.4-2.9c0.2-0.3,0.5-0.5,0.9-0.5
					c0.4,0.1,0.7,0.3,0.8,0.5c0.2,0.4,0.4,2.1,0.4,2.9l0,5c0.4,0.1,0.7,0.1,1,0.2c0,0,0,0,0,0c0.3,0,0.6,0,0.8,0c0,0,0,0,0,0
					c0,0,0,0,0,0c0.2,0,0.5,0,0.8,0c0,0,0,0,0,0c0.3,0,0.6-0.1,1-0.2l0-5c0-0.9,0.1-2.6,0.4-2.9c0.2-0.3,0.5-0.5,0.8-0.5
					c0.4,0.1,0.7,0.3,0.9,0.5c0.3,0.4,0.4,2.1,0.4,2.9l0,5c0.4,0.1,0.7,0.1,1,0.2c0,0,0,0,0,0c0.3,0,0.6,0,0.8,0c0,0,0,0,0,0
					c0,0,0,0,0,0c0.2,0,0.5,0,0.8,0c0,0,0,0,0,0c0.3,0,0.6-0.1,1-0.2c0,0,0,0,0,0l0-7.5C22.9,13.6,22.8,12.6,22.5,11.8z"/>
			</g>
		</g>
	</g>
</g>
</svg>
