<?xml version="1.0" encoding="utf-8"?>
<!-- Generator: Adobe Illustrator 19.0.0, SVG Export Plug-In . SVG Version: 6.00 Build 0)  -->
<!DOCTYPE svg PUBLIC "-//W3C//DTD SVG 1.1//EN" "http://www.w3.org/Graphics/SVG/1.1/DTD/svg11.dtd">
<svg version="1.1" id="Calque_1" xmlns="http://www.w3.org/2000/svg" xmlns:xlink="http://www.w3.org/1999/xlink" x="0px" y="0px"
	 viewBox="0 0 139.8 57" enable-background="new 0 0 139.8 57" xml:space="preserve">
<path id="XMLID_7_" fill="#D4471B" d="M28.4,0.7c15.2,0,27.5,12.5,27.5,27.9c0,15.4-12.3,27.9-27.5,27.9C13.2,56.5,0.9,44,0.9,28.6
	C0.9,13.2,13.2,0.7,28.4,0.7z"/>
<g id="XMLID_10_">
	<g id="XMLID_114_">
		<path id="XMLID_122_" fill="#D4471B" d="M96.7,35.8c-0.4,0-0.8,0-1.2,0.1c-0.4,0-0.8,0.1-1.3,0.2v11.2c0.5,0.1,0.9,0.1,1.4,0.2
			c0.4,0,0.8,0.1,1.1,0.1c0.3,0,0.7,0,1.1-0.1c0.4,0,0.9-0.1,1.4-0.2V36.1c-0.4-0.1-0.8-0.2-1.3-0.2C97.5,35.9,97.1,35.8,96.7,35.8z
			 M96.7,29.6c-0.4,0-0.8,0-1.2,0.1c-0.4,0-0.8,0.1-1.3,0.2v4c0.5,0.1,0.9,0.1,1.4,0.2c0.4,0,0.8,0.1,1.1,0.1c0.3,0,0.7,0,1.1-0.1
			c0.4,0,0.9-0.1,1.4-0.2v-4c-0.4-0.1-0.8-0.2-1.3-0.2C97.5,29.6,97.1,29.6,96.7,29.6z M112.9,32.9c-0.6-0.5-1.3-0.9-2.1-1.2
			c-0.8-0.3-1.7-0.4-2.8-0.4c-0.7,0-1.6,0.1-2.5,0.2c-0.9,0.2-1.9,0.4-2.8,0.7c0,0.4,0,0.8,0,1.1c0,0.3,0.1,0.6,0.1,0.9
			c0.1,0.3,0.2,0.6,0.3,0.9c0.1,0.3,0.3,0.6,0.5,0.9c0.7-0.2,1.3-0.4,1.9-0.5c0.6-0.1,1.2-0.2,1.6-0.2c0.4,0,0.7,0,1,0.1
			c0.3,0.1,0.6,0.1,0.9,0.3c0.3,0.1,0.5,0.3,0.7,0.6c0.2,0.2,0.3,0.5,0.3,0.9h-1.8c-0.7,0-1.5,0.1-2.3,0.2c-0.8,0.2-1.5,0.4-2.1,0.8
			c-0.6,0.4-1.2,0.9-1.6,1.5c-0.4,0.6-0.6,1.5-0.6,2.5c0,1,0.2,1.9,0.5,2.6c0.3,0.7,0.8,1.3,1.4,1.7c0.6,0.4,1.3,0.7,2.2,0.9
			c0.9,0.2,1.8,0.3,2.8,0.3c1.2,0,2.3-0.1,3.4-0.3c1.1-0.2,2-0.4,2.7-0.7v-8.9c0-1.1-0.2-2.1-0.5-2.9
			C113.9,34.1,113.4,33.4,112.9,32.9z M110.1,43.8c-0.2,0-0.4,0.1-0.7,0.1c-0.3,0-0.6,0.1-0.8,0.1c-0.3,0-0.5,0-0.8-0.1
			c-0.3,0-0.6-0.1-0.9-0.2c-0.3-0.1-0.5-0.3-0.7-0.5c-0.2-0.2-0.3-0.5-0.3-1c0-0.5,0.2-1,0.7-1.3c0.5-0.3,1-0.5,1.7-0.5h1.7V43.8z
			 M138.8,34.7c-0.4-0.9-1-1.6-1.6-2.1c-0.7-0.5-1.4-0.8-2.2-1c-0.8-0.2-1.6-0.2-2.4-0.2c-0.9,0-1.6,0.1-2.3,0.3
			c-0.7,0.2-1.3,0.4-1.8,0.7c-0.7-0.4-1.4-0.7-2.2-0.8c-0.8-0.1-1.6-0.2-2.4-0.2c-1.5,0-2.7,0.1-3.6,0.3c-1,0.2-1.8,0.5-2.5,0.7
			v14.9c0.5,0.1,1,0.2,1.4,0.2c0.4,0,0.8,0,1.1,0c0.3,0,0.7,0,1.1,0c0.4,0,0.9-0.1,1.4-0.2V36c0.1,0,0.2-0.1,0.5-0.1
			c0.2,0,0.5-0.1,0.7-0.1c0.8,0,1.4,0.2,1.7,0.7c0.3,0.5,0.5,1.2,0.5,2.3v8.5c0.5,0.1,1,0.2,1.4,0.2c0.4,0,0.8,0,1.1,0
			c0.3,0,0.7,0,1.1,0c0.4,0,0.9-0.1,1.4-0.2v-8.8c0-0.9-0.1-1.7-0.3-2.4c0.1,0,0.3-0.1,0.5-0.2c0.3-0.1,0.5-0.1,0.8-0.1
			c0.8,0,1.4,0.2,1.7,0.7c0.4,0.5,0.5,1.2,0.5,2.3v8.5c0.5,0.1,1,0.2,1.4,0.2c0.4,0,0.8,0,1.1,0c0.3,0,0.7,0,1.1,0
			c0.4,0,0.9-0.1,1.4-0.2v-9.1C139.4,36.8,139.2,35.6,138.8,34.7z M88.8,32.6c-0.7-0.5-1.4-0.8-2.2-1c-0.7-0.1-1.4-0.2-2-0.2
			c-0.1,0-0.2,0-0.3,0c-0.9,0-1.6,0.1-2.3,0.3c-0.6,0.2-1.2,0.4-1.7,0.6c-0.5-0.2-1-0.4-1.7-0.6c-0.7-0.2-1.5-0.3-2.3-0.3
			c-0.1,0-0.2,0-0.3,0c-0.7,0-1.3,0.1-2,0.2c-0.8,0.2-1.5,0.5-2.2,1c-0.7,0.5-1.2,1.2-1.6,2.1c-0.4,0.9-0.6,2.1-0.6,3.6v9.1
			c0,0,0,0,0,0c0.5,0.1,0.9,0.2,1.3,0.2c0,0,0,0,0,0c0.4,0,0.8,0,1.1,0h0c0.3,0,0.7,0,1.1,0c0,0,0,0,0,0c0.4,0,0.9-0.1,1.4-0.2v-8.5
			c0-1.1,0.2-1.8,0.5-2.3c0.3-0.3,0.7-0.6,1.2-0.7c0.5,0.1,0.9,0.3,1.1,0.7c0.3,0.5,0.5,1.2,0.5,2.3v8.5c0.5,0.1,0.9,0.2,1.3,0.2
			c0,0,0,0,0.1,0c0.4,0,0.8,0,1.1,0h0c0.3,0,0.7,0,1.1,0c0,0,0,0,0.1,0c0.4,0,0.8-0.1,1.3-0.2v-8.5c0-1.1,0.2-1.8,0.5-2.3
			c0.3-0.3,0.6-0.6,1.1-0.7c0.5,0.1,0.9,0.3,1.2,0.7c0.4,0.5,0.5,1.2,0.5,2.3v8.5c0.5,0.1,1,0.2,1.4,0.2c0,0,0,0,0,0
			c0.4,0,0.8,0,1.1,0h0c0.3,0,0.7,0,1.1,0c0,0,0,0,0,0c0.4,0,0.8-0.1,1.3-0.2c0,0,0,0,0,0v-9.1c0-1.5-0.2-2.7-0.6-3.6
			C90,33.8,89.4,33.1,88.8,32.6z"/>
	</g>
</g>
<g id="XMLID_6_">
	<defs>
		<path id="XMLID_3_" d="M28.4,0.7c15.2,0,27.5,12.5,27.5,27.9c0,15.4-12.3,27.9-27.5,27.9C13.2,56.5,0.9,44,0.9,28.6
			C0.9,13.2,13.2,0.7,28.4,0.7z"/>
	</defs>
	<clipPath id="XMLID_148_">
		<use xlink:href="#XMLID_3_"  overflow="visible"/>
	</clipPath>
	<g id="XMLID_2_" clip-path="url(#XMLID_148_)">
		<g id="XMLID_5_">
			<g id="XMLID_30_">
				<path id="XMLID_32_" fill="#FFFFFF" d="M42.5,22.7c-0.6-1.4-1.3-2.5-2.2-3.3c-0.9-0.8-1.9-1.3-3.1-1.5c-1-0.2-1.9-0.3-2.8-0.4
					c-0.1,0-0.3,0-0.4,0c-0.5,0-0.9,0-1.4,0.1l1.1-31.9c0-1.6-1.3-2.8-2.9-2.8l-4.3,0c-1.6,0-2.9,1.3-2.9,2.8l0.9,31.9
					c-0.5-0.1-1.1-0.1-1.7-0.1c-0.1,0-0.3,0-0.4,0c-0.9,0-1.9,0.1-2.8,0.3c-1.1,0.2-2.1,0.7-3.1,1.5c-0.9,0.8-1.7,1.8-2.3,3.3
					c-0.6,1.4-0.9,3.3-0.9,5.6l0,14.2c0,0,0,0,0,0c0.7,0.2,1.3,0.3,1.8,0.3c0,0,0,0,0,0c0.6,0,1.1,0.1,1.5,0.1c0,0,0,0,0,0
					c0,0,0,0,0,0c0.4,0,0.9,0,1.5-0.1c0,0,0,0,0,0c0.6,0,1.2-0.1,1.9-0.3l0-9.4c0-1.7,0.3-4.8,0.8-5.5c0.4-0.5,0.9-0.9,1.6-1
					c0.7,0.1,1.2,0.5,1.6,1c0.5,0.7,0.7,3.9,0.7,5.5l0,9.4c0.7,0.2,1.3,0.3,1.8,0.3c0,0,0.1,0,0.1,0c0.6,0,1.1,0.1,1.5,0.1
					c0,0,0,0,0,0c0,0,0,0,0,0c0.4,0,0.9,0,1.5-0.1c0,0,0,0,0.1,0c0.6,0,1.2-0.1,1.8-0.3l0-9.4c0-1.7,0.2-4.8,0.7-5.5
					c0.3-0.5,0.9-0.9,1.6-1c0.7,0.1,1.3,0.5,1.6,1c0.5,0.7,0.7,3.9,0.7,5.5l0,9.4c0.7,0.2,1.3,0.3,1.9,0.3c0,0,0,0,0,0
					c0.6,0,1.1,0.1,1.5,0.1c0,0,0,0,0,0c0,0,0,0,0,0c0.4,0,0.9,0,1.5-0.1c0,0,0,0,0,0c0.6,0,1.2-0.1,1.8-0.3c0,0,0,0,0,0l0-14.2
					C43.4,26,43.1,24.1,42.5,22.7z"/>
			</g>
		</g>
	</g>
</g>
<g id="XMLID_11_">
	<g id="XMLID_99_">
		<path id="XMLID_100_" fill="#4A4A4A" d="M96.7,15.2c-0.4,0-0.8,0-1.2,0.1c-0.4,0-0.8,0.1-1.3,0.2v11.2c0.5,0.1,0.9,0.1,1.4,0.2
			c0.4,0,0.8,0.1,1.1,0.1c0.3,0,0.7,0,1.1-0.1c0.4,0,0.9-0.1,1.4-0.2V15.5c-0.4-0.1-0.8-0.2-1.3-0.2C97.5,15.3,97.1,15.2,96.7,15.2z
			 M96.7,9c-0.4,0-0.8,0-1.2,0.1c-0.4,0-0.8,0.1-1.3,0.2v4c0.5,0.1,0.9,0.1,1.4,0.2c0.4,0,0.8,0.1,1.1,0.1c0.3,0,0.7,0,1.1-0.1
			c0.4,0,0.9-0.1,1.4-0.2v-4c-0.4-0.1-0.8-0.2-1.3-0.2C97.5,9,97.1,9,96.7,9z M112.9,12.3c-0.6-0.5-1.3-0.9-2.1-1.2
			c-0.8-0.3-1.7-0.4-2.8-0.4c-0.7,0-1.6,0.1-2.5,0.2c-0.9,0.2-1.9,0.4-2.8,0.7c0,0.4,0,0.8,0,1.1c0,0.3,0.1,0.6,0.1,0.9
			c0.1,0.3,0.2,0.6,0.3,0.9c0.1,0.3,0.3,0.6,0.5,0.9c0.7-0.2,1.3-0.4,1.9-0.5c0.6-0.1,1.2-0.2,1.6-0.2c0.4,0,0.7,0,1,0.1
			c0.3,0.1,0.6,0.1,0.9,0.3c0.3,0.1,0.5,0.3,0.7,0.6c0.2,0.2,0.3,0.5,0.3,0.9h-1.8c-0.7,0-1.5,0.1-2.3,0.2c-0.8,0.2-1.5,0.4-2.1,0.8
			c-0.6,0.4-1.2,0.9-1.6,1.5c-0.4,0.6-0.6,1.5-0.6,2.5c0,1,0.2,1.9,0.5,2.6c0.3,0.7,0.8,1.3,1.4,1.7c0.6,0.4,1.3,0.7,2.2,0.9
			c0.9,0.2,1.8,0.3,2.8,0.3c1.2,0,2.3-0.1,3.4-0.3c1.1-0.2,2-0.4,2.7-0.7v-8.9c0-1.1-0.2-2.1-0.5-2.9
			C113.9,13.5,113.4,12.8,112.9,12.3z M110.1,23.2c-0.2,0-0.4,0.1-0.7,0.1c-0.3,0-0.6,0.1-0.8,0.1c-0.3,0-0.5,0-0.8-0.1
			c-0.3,0-0.6-0.1-0.9-0.2c-0.3-0.1-0.5-0.3-0.7-0.5c-0.2-0.2-0.3-0.5-0.3-1c0-0.5,0.2-1,0.7-1.3c0.5-0.3,1-0.5,1.7-0.5h1.7V23.2z
			 M138.8,14.1c-0.4-0.9-1-1.6-1.6-2.1c-0.7-0.5-1.4-0.8-2.2-1c-0.8-0.2-1.6-0.2-2.4-0.2c-0.9,0-1.6,0.1-2.3,0.3
			c-0.7,0.2-1.3,0.4-1.8,0.7c-0.7-0.4-1.4-0.7-2.2-0.8c-0.8-0.1-1.6-0.2-2.4-0.2c-1.5,0-2.7,0.1-3.6,0.3c-1,0.2-1.8,0.5-2.5,0.7
			v14.9c0.5,0.1,1,0.2,1.4,0.2c0.4,0,0.8,0,1.1,0c0.3,0,0.7,0,1.1,0c0.4,0,0.9-0.1,1.4-0.2V15.4c0.1,0,0.2-0.1,0.5-0.1
			c0.2,0,0.5-0.1,0.7-0.1c0.8,0,1.4,0.2,1.7,0.7c0.3,0.5,0.5,1.2,0.5,2.3v8.5c0.5,0.1,1,0.2,1.4,0.2c0.4,0,0.8,0,1.1,0
			c0.3,0,0.7,0,1.1,0c0.4,0,0.9-0.1,1.4-0.2v-8.8c0-0.9-0.1-1.7-0.3-2.4c0.1,0,0.3-0.1,0.5-0.2c0.3-0.1,0.5-0.1,0.8-0.1
			c0.8,0,1.4,0.2,1.7,0.7c0.4,0.5,0.5,1.2,0.5,2.3v8.5c0.5,0.1,1,0.2,1.4,0.2c0.4,0,0.8,0,1.1,0c0.3,0,0.7,0,1.1,0
			c0.4,0,0.9-0.1,1.4-0.2v-9.1C139.4,16.2,139.2,15,138.8,14.1z M88.8,12c-0.7-0.5-1.4-0.8-2.2-1c-0.7-0.1-1.4-0.2-2-0.2
			c-0.1,0-0.2,0-0.3,0c-0.9,0-1.6,0.1-2.3,0.3c-0.6,0.2-1.2,0.4-1.7,0.6c-0.5-0.2-1-0.4-1.7-0.6c-0.7-0.2-1.5-0.3-2.3-0.3
			c-0.1,0-0.2,0-0.3,0c-0.7,0-1.3,0.1-2,0.2c-0.8,0.2-1.5,0.5-2.2,1c-0.7,0.5-1.2,1.2-1.6,2.1c-0.4,0.9-0.6,2.1-0.6,3.6v9.1
			c0,0,0,0,0,0c0.5,0.1,0.9,0.2,1.3,0.2c0,0,0,0,0,0c0.4,0,0.8,0,1.1,0h0c0.3,0,0.7,0,1.1,0c0,0,0,0,0,0c0.4,0,0.9-0.1,1.4-0.2v-8.5
			c0-1.1,0.2-1.8,0.5-2.3c0.3-0.3,0.7-0.6,1.2-0.7c0.5,0.1,0.9,0.3,1.1,0.7c0.3,0.5,0.5,1.2,0.5,2.3v8.5c0.5,0.1,0.9,0.2,1.3,0.2
			c0,0,0,0,0.1,0c0.4,0,0.8,0,1.1,0h0c0.3,0,0.7,0,1.1,0c0,0,0,0,0.1,0c0.4,0,0.8-0.1,1.3-0.2v-8.5c0-1.1,0.2-1.8,0.5-2.3
			c0.3-0.3,0.6-0.6,1.1-0.7c0.5,0.1,0.9,0.3,1.2,0.7c0.4,0.5,0.5,1.2,0.5,2.3v8.5c0.5,0.1,1,0.2,1.4,0.2c0,0,0,0,0,0
			c0.4,0,0.8,0,1.1,0h0c0.3,0,0.7,0,1.1,0c0,0,0,0,0,0c0.4,0,0.8-0.1,1.3-0.2c0,0,0,0,0,0v-9.1c0-1.5-0.2-2.7-0.6-3.6
			C90,13.2,89.4,12.5,88.8,12z"/>
	</g>
</g>
</svg>
