<?xml version="1.0" encoding="utf-8"?>
<!-- Generator: Adobe Illustrator 23.0.1, SVG Export Plug-In . SVG Version: 6.00 Build 0)  -->
<svg version="1.1" id="Calque_1" xmlns="http://www.w3.org/2000/svg" xmlns:xlink="http://www.w3.org/1999/xlink" x="0px" y="0px"
	 viewBox="0 0 34.1 14.6" style="enable-background:new 0 0 34.1 14.6;" xml:space="preserve">
<style type="text/css">
	.st0{fill:none;stroke:#FFFFFF;stroke-width:1.0693;stroke-linecap:round;stroke-linejoin:round;stroke-miterlimit:10;}
</style>
<path class="st0" d="M28.3,12.8h-4.5c0,0-4.5,1.3-5.8,1.3c-1,0-3.2-1-4.3-1.5"/>
<path class="st0" d="M17.3,1.1c1.2-0.2,3.1-0.4,3.7-0.3c0.9,0.1,2.2,1.3,2.8,1.6c0.6,0.3,3,0.3,3,0.3h1.5"/>
<path class="st0" d="M5.9,12.8h7.8V5.3l1.9-1.2c0,0,3.3,1.5,3.9,1.7C19.8,5.9,20.6,5.6,21,5c0.4-0.7,0.2-1.6-0.3-2
	c-0.9-0.6-3.6-2-4.4-2.3S14,0.4,12.9,1.1S11,2.5,9.8,2.5c-0.5,0-2.1,0-3.9,0"/>
<rect x="0.5" y="2.2" class="st0" width="5.2" height="11.6"/>
<polyline class="st0" points="28.3,2.7 28.3,13.7 33.6,13.7 33.6,2.2 28.3,2.2 28.3,2.7 "/>
<circle class="st0" cx="3.1" cy="5.2" r="0.9"/>
</svg>
