<?xml version="1.0" encoding="utf-8"?>
<!-- Generator: Adobe Illustrator 23.0.1, SVG Export Plug-In . SVG Version: 6.00 Build 0)  -->
<svg version="1.1" id="Calque_1" xmlns="http://www.w3.org/2000/svg" xmlns:xlink="http://www.w3.org/1999/xlink" x="0px" y="0px"
	 viewBox="0 0 20.9 23.3" style="enable-background:new 0 0 20.9 23.3;" xml:space="preserve">
<style type="text/css">
	.st0{fill:#FFFFFF;stroke:#343434;stroke-width:0.687;stroke-linecap:round;stroke-linejoin:round;stroke-miterlimit:10;}
	.st1{fill:#FFFFFF;stroke:#343434;stroke-width:0.6779;stroke-linecap:round;stroke-linejoin:round;stroke-miterlimit:10;}
	.st2{fill:none;stroke:#343434;stroke-width:0.6949;stroke-linejoin:round;stroke-miterlimit:10;}
	.st3{clip-path:url(#SVGID_2_);fill:#FFFFFF;stroke:#343434;stroke-width:0.6949;stroke-linejoin:round;stroke-miterlimit:10;}
	.st4{clip-path:url(#SVGID_4_);fill:#FFFFFF;stroke:#343434;stroke-width:0.6949;stroke-linejoin:round;stroke-miterlimit:10;}
	.st5{fill:#FFFFFF;stroke:#343434;stroke-width:0.6969;stroke-linecap:round;stroke-linejoin:round;stroke-miterlimit:10;}
	.st6{fill:#E04A38;}
	.st7{fill:#FFFFFF;stroke:#343434;stroke-width:0.6969;stroke-linejoin:round;stroke-miterlimit:10;}
	.st8{fill:#FFFFFF;stroke:#343434;stroke-width:0.6607;stroke-linecap:round;stroke-linejoin:round;stroke-miterlimit:10;}
</style>
<rect x="4.7" y="4" class="st0" width="11.4" height="4.8"/>
<path class="st1" d="M10.5,15.8c1.1,0,4.1-0.1,6.3,1.1s3,6,3,6H1.2c0,0,0.8-4.7,3-6S9.5,15.8,10.5,15.8"/>
<line class="st2" x1="5.3" y1="19.9" x2="5" y2="22.9"/>
<line class="st2" x1="15.4" y1="19.9" x2="15.7" y2="22.9"/>
<g>
	<defs>
		<path id="SVGID_1_" d="M5.5,15.3l1.1,3.2l-3.9,0.3l-2.3-1.4l0.4-1.7c0,0,1.9-0.4,2.2-0.5S5.5,15.3,5.5,15.3z"/>
	</defs>
	<clipPath id="SVGID_2_">
		<use xlink:href="#SVGID_1_"  style="overflow:visible;"/>
	</clipPath>
	<ellipse class="st3" cx="4.5" cy="17.1" rx="2.6" ry="0.9"/>
</g>
<line class="st2" x1="6.1" y1="16.1" x2="7.8" y2="22.7"/>
<g>
	<defs>
		<path id="SVGID_3_" d="M15.5,15.3l-1.1,3.2l3.9,0.3l2.3-1.4l-0.4-1.7c0,0-1.9-0.4-2.2-0.5C17.7,15.3,15.5,15.3,15.5,15.3z"/>
	</defs>
	<clipPath id="SVGID_4_">
		<use xlink:href="#SVGID_3_"  style="overflow:visible;"/>
	</clipPath>
	<ellipse class="st4" cx="16.5" cy="17.1" rx="2.6" ry="0.9"/>
</g>
<line class="st2" x1="14.9" y1="16.1" x2="13.2" y2="22.7"/>
<circle class="st5" cx="15.2" cy="9.9" r="1.5"/>
<circle class="st5" cx="5.9" cy="9.9" r="1.5"/>
<polygon class="st6" points="12.2,23.3 8.8,23.3 9.8,18.1 11.2,18.1 "/>
<ellipse class="st5" cx="10.6" cy="15.4" rx="2.3" ry="2.4"/>
<path class="st5" d="M5.9,11c0,2.6,2.1,4.6,4.6,4.6s4.6-2.1,4.6-4.6V7.6c0,0-2.6-1.2-3.1-2.5c-1.3,1.4-2.9,2.3-6.3,2.3
	C5.8,7.5,5.9,11,5.9,11z"/>
<path class="st7" d="M8.2,11.1c0,1.3,1.1,2.4,2.4,2.4s2.4-1.1,2.4-2.4"/>
<circle class="st7" cx="8.1" cy="9.1" r="0.6"/>
<circle class="st7" cx="12.9" cy="9.1" r="0.6"/>
<rect x="5.8" y="0.3" class="st8" width="9.2" height="3.4"/>
<rect x="0.3" y="3.5" class="st8" width="20.3" height="1.3"/>
<path class="st6" d="M11.9,17.7c0,0.8-0.6,1.4-1.4,1.4c-0.3,0-0.7-0.1-0.9-0.4c-0.3-0.3-0.5-0.6-0.5-1.1c0-0.8,0.6-1.4,1.4-1.4
	C11.3,16.2,11.9,16.9,11.9,17.7z"/>
</svg>
