<?xml version="1.0" encoding="utf-8"?>
<!-- Generator: Adobe Illustrator 23.0.1, SVG Export Plug-In . SVG Version: 6.00 Build 0)  -->
<svg version="1.1" id="Calque_1" xmlns="http://www.w3.org/2000/svg" xmlns:xlink="http://www.w3.org/1999/xlink" x="0px" y="0px"
	 viewBox="0 0 15.8 23.2" style="enable-background:new 0 0 15.8 23.2;" xml:space="preserve">
<style type="text/css">
	.st0{fill:none;stroke:#FFFFFF;stroke-width:1.0693;stroke-linecap:round;stroke-linejoin:round;stroke-miterlimit:10;}
	.st1{clip-path:url(#SVGID_2_);}
</style>
<path class="st0" d="M7.5,3.7l0.4,2.1c0.1,0.4-0.2,0.9-0.7,1L5,7.4C4.5,7.5,4.2,7.9,4.3,8.3c0.1,0.9,0,1.9,1.2,4.5s1.9,3.3,2.5,4
	c0.3,0.3,0.8,0.4,1.2,0.1l1.9-1c0.4-0.2,1-0.2,1.2,0.2l1.3,1.8l1.5,2c0.3,0.4,0.1,0.9-0.3,1.1L13,22.2c-0.5,0.3-1.1,0.5-1.7,0.5
	c-1.9-0.1-5.8-1.2-9-8.6S1,3.2,2.2,1.8C2.6,1.4,3.2,1.1,3.8,1L6,0.6c0.5-0.1,1,0.2,1,0.6L7.5,3.7z"/>
<g>
	<defs>
		<path id="SVGID_1_" d="M7.5,3.7l0.4,2.1c0.1,0.4-0.2,0.9-0.7,1L5,7.4C4.5,7.5,4.2,7.9,4.3,8.3c0.1,0.9,0,1.9,1.2,4.5
			s1.9,3.3,2.5,4c0.3,0.3,0.8,0.4,1.2,0.1l1.9-1c0.4-0.2,1-0.2,1.2,0.2l1.3,1.8l1.5,2c0.3,0.4,0.1,0.9-0.3,1.1L13,22.2
			c-0.5,0.3-1.1,0.5-1.7,0.5c-1.9-0.1-5.8-1.2-9-8.6S1,3.2,2.2,1.8C2.6,1.4,3.2,1.1,3.8,1L6,0.6c0.5-0.1,1,0.2,1,0.6L7.5,3.7z"/>
	</defs>
	<clipPath id="SVGID_2_">
		<use xlink:href="#SVGID_1_"  style="overflow:visible;"/>
	</clipPath>
	<g class="st1">
		<path class="st0" d="M2.6-1.4c0,0-0.1,2.5,0.5,6s2,6.3,2,6.3l7.4,0l0.1-10.7l-2.6-2.9L2.6-1.4z"/>
		<path class="st0" d="M13.5,23.8c0,0-1.9-1.7-4.1-4.6s-3.2-5.8-3.2-5.8l5.2-5.2l8,7.4l0.4,3.8L13.5,23.8z"/>
	</g>
	
		<use xlink:href="#SVGID_1_"  style="overflow:visible;fill:none;stroke:#FFFFFF;stroke-width:1.0693;stroke-linecap:round;stroke-linejoin:round;stroke-miterlimit:10;"/>
</g>
<path class="st0" d="M7.5,3.7l0.4,2.1c0.1,0.4-0.2,0.9-0.7,1L5,7.4C4.5,7.5,4.2,7.9,4.3,8.3c0.1,0.9,0,1.9,1.2,4.5s1.9,3.3,2.5,4
	c0.3,0.3,0.8,0.4,1.2,0.1l1.9-1c0.4-0.2,1-0.2,1.2,0.2l1.3,1.8l1.5,2c0.3,0.4,0.1,0.9-0.3,1.1L13,22.2c-0.5,0.3-1.1,0.5-1.7,0.5
	c-1.9-0.1-5.8-1.2-9-8.6S1,3.2,2.2,1.8C2.6,1.4,3.2,1.1,3.8,1L6,0.6c0.5-0.1,1,0.2,1,0.6L7.5,3.7z"/>
</svg>
