<?xml version="1.0" encoding="utf-8"?>
<!-- Generator: Adobe Illustrator 23.0.1, SVG Export Plug-In . SVG Version: 6.00 Build 0)  -->
<svg version="1.1" id="Calque_1" xmlns="http://www.w3.org/2000/svg" xmlns:xlink="http://www.w3.org/1999/xlink" x="0px" y="0px"
	 viewBox="0 0 14.8 20.2" style="enable-background:new 0 0 14.8 20.2;" xml:space="preserve">
<style type="text/css">
	.st0{fill:#FFFFFF;}
	.st1{fill:none;stroke:#343434;stroke-width:0.7586;stroke-linecap:round;stroke-linejoin:round;stroke-miterlimit:10;}
	.st2{fill:#343434;stroke:#343434;stroke-width:0.4009;stroke-miterlimit:10;}
	.st3{fill:#E04A38;}
	.st4{fill:#FFFFFF;stroke:#343434;stroke-width:0.7586;stroke-linecap:round;stroke-linejoin:round;stroke-miterlimit:10;}
	.st5{fill:none;stroke:#343434;stroke-width:0.7672;stroke-linecap:round;stroke-linejoin:round;stroke-miterlimit:10;}
</style>
<path class="st0" d="M2.1,5.9h10.6l0.6,4.3l1,6.9c0.2,1.5,0.3,2.8-1.6,2.8H2.1c-1.9,0-1.8-1.3-1.6-2.8l1.1-7.7L2.1,5.9z"/>
<path class="st1" d="M2.1,5.9h10.6l0.6,4.3l1,6.9c0.2,1.5,0.3,2.8-1.6,2.8H2.1c-1.9,0-1.8-1.3-1.6-2.8l1.1-7.7L2.1,5.9z"/>
<circle class="st2" cx="5.1" cy="7.8" r="0.5"/>
<circle class="st2" cx="9.7" cy="7.8" r="0.5"/>
<polygon class="st3" points="13.3,13 1.4,13 1,16.3 13.8,16.3 "/>
<ellipse class="st4" cx="7.6" cy="14.6" rx="3.5" ry="2"/>
<path class="st5" d="M9.7,7.4V3.2c0-1.6-1.1-2.8-2.3-2.8S5,1.7,5,3.2v4.2"/>
</svg>
