<?xml version="1.0" encoding="utf-8"?>
<!-- Generator: Adobe Illustrator 23.0.1, SVG Export Plug-In . SVG Version: 6.00 Build 0)  -->
<svg version="1.1" id="Calque_1" xmlns="http://www.w3.org/2000/svg" xmlns:xlink="http://www.w3.org/1999/xlink" x="0px" y="0px"
	 viewBox="0 0 72.5 54.3" style="enable-background:new 0 0 72.5 54.3;" xml:space="preserve">
<style type="text/css">
	.st0{fill:#E04A38;}
	.st1{fill:none;stroke:#FFFFFF;stroke-width:0.8699;stroke-linecap:round;stroke-linejoin:round;stroke-miterlimit:10;}
	.st2{fill:#FFFFFF;stroke:#343434;stroke-width:1.4442;stroke-linecap:round;stroke-linejoin:round;stroke-miterlimit:10;}
	.st3{fill:none;stroke:#343434;stroke-width:1.4442;stroke-linecap:round;stroke-linejoin:round;stroke-miterlimit:10;}
</style>
<g>
	<circle class="st0" cx="16.3" cy="16.3" r="16.3"/>
	<g>
		<polyline class="st1" points="10.2,14.5 10.2,24.3 14.2,24.3 14.2,19.4 18.4,19.4 18.4,24.3 22.4,24.3 22.4,14.5 		"/>
		<polyline class="st1" points="7.7,16.9 16.3,8.3 24.9,16.9 		"/>
		<line class="st1" x1="20.6" y1="9.9" x2="20.6" y2="12.3"/>
	</g>
	<path class="st2" d="M71.1,47.4H24.7c-0.4,0-0.7-0.3-0.7-0.7v-1.5c0-0.4,0.3-0.7,0.7-0.7h46.4c0.4,0,0.7,0.3,0.7,0.7v1.5
		C71.8,47.1,71.5,47.4,71.1,47.4z"/>
	<polygon class="st2" points="65.3,39 34.8,39 34.8,27.9 63.8,27.9 	"/>
	<rect x="38" y="35.7" class="st2" width="30.4" height="11.2"/>
	<rect x="27.1" y="20.7" class="st2" width="30.4" height="26.1"/>
	<rect x="27.1" y="28.2" class="st0" width="30.4" height="11.1"/>
	<rect x="27.1" y="20.7" class="st3" width="30.4" height="26.1"/>
	<circle class="st2" cx="36.1" cy="48.1" r="5.5"/>
	<circle class="st2" cx="36.1" cy="48.1" r="2.2"/>
	<circle class="st2" cx="62.2" cy="48.1" r="5.5"/>
	<circle class="st2" cx="62.2" cy="48.1" r="2.2"/>
</g>
</svg>
