<?xml version="1.0" encoding="utf-8"?>
<!-- Generator: Adobe Illustrator 23.0.1, SVG Export Plug-In . SVG Version: 6.00 Build 0)  -->
<svg version="1.1" id="Calque_1" xmlns="http://www.w3.org/2000/svg" xmlns:xlink="http://www.w3.org/1999/xlink" x="0px" y="0px"
	 viewBox="0 0 72.4 54.3" style="enable-background:new 0 0 72.4 54.3;" xml:space="preserve">
<style type="text/css">
	.st0{fill:#E04A38;}
	.st1{fill:none;stroke:#FFFFFF;stroke-width:0.8699;stroke-linecap:round;stroke-linejoin:round;stroke-miterlimit:10;}
	.st2{fill:none;stroke:#FFFFFF;stroke-width:0.9193;stroke-miterlimit:10;}
	.st3{fill:#FFFFFF;stroke:#343434;stroke-width:1.4442;stroke-linecap:round;stroke-linejoin:round;stroke-miterlimit:10;}
	.st4{fill:none;stroke:#343434;stroke-width:1.4442;stroke-linecap:round;stroke-linejoin:round;stroke-miterlimit:10;}
	.st5{fill:#FFFFFF;stroke:#343434;stroke-width:1.4442;stroke-miterlimit:10;}
</style>
<g>
	<circle class="st0" cx="16.3" cy="16.3" r="16.3"/>
	<g>
		<polyline class="st1" points="10.2,14.5 10.2,24.3 14.2,24.3 14.2,19.4 18.4,19.4 18.4,24.3 22.4,24.3 22.4,14.5 		"/>
		<polyline class="st1" points="7.7,16.9 16.3,8.3 24.9,16.9 		"/>
		<line class="st1" x1="20.6" y1="9.9" x2="20.6" y2="12.3"/>
	</g>
	<g>
		<path class="st2" d="M49.3,20.6c-3.8,0-6.9,3.1-6.9,6.9s6.9,13.1,6.9,13.1s6.9-9.3,6.9-13.1S53.1,20.6,49.3,20.6z M49.3,30.2
			c-1.5,0-2.7-1.2-2.7-2.7s1.2-2.7,2.7-2.7S52,26,52,27.5S50.8,30.2,49.3,30.2z"/>
		<path class="st3" d="M71,47.3H24.6c-0.4,0-0.7-0.3-0.7-0.7v-1.5c0-0.4,0.3-0.7,0.7-0.7H71c0.4,0,0.7,0.3,0.7,0.7v1.5
			C71.7,47,71.4,47.3,71,47.3z"/>
		<polygon class="st3" points="65.2,39 34.7,39 34.7,27.8 63.7,27.8 		"/>
		<rect x="37.9" y="35.6" class="st3" width="30.4" height="11.2"/>
		<rect x="27" y="20.7" class="st3" width="30.4" height="26.1"/>
		<rect x="27" y="28.2" class="st0" width="30.4" height="11.1"/>
		<rect x="27" y="20.7" class="st4" width="30.4" height="26.1"/>
		<circle class="st3" cx="42.1" cy="19.2" r="11.2"/>
		<circle class="st3" cx="42.1" cy="19.1" r="2"/>
		<path class="st5" d="M38.4,26.5c-2.7-1.4-4.5-4.1-4.5-7.3c0-0.4,0-0.7,0.1-1.1"/>
		<line class="st5" x1="40.3" y1="18.1" x2="34.2" y2="14.9"/>
		<line class="st5" x1="33.2" y1="9.2" x2="34.5" y2="10.8"/>
		<line class="st5" x1="31.1" y1="10.4" x2="34.8" y2="7.4"/>
		<line class="st3" x1="51.8" y1="10.2" x2="50.2" y2="11.5"/>
		<line class="st5" x1="50.6" y1="8" x2="53.6" y2="11.8"/>
		<line class="st5" x1="42.2" y1="5.8" x2="42.2" y2="7.9"/>
		<line class="st5" x1="39.7" y1="5.4" x2="44.5" y2="5.4"/>
		<circle class="st3" cx="36" cy="48.1" r="5.5"/>
		<circle class="st3" cx="36" cy="48.1" r="2.2"/>
		<circle class="st3" cx="62.1" cy="48.1" r="5.5"/>
		<circle class="st3" cx="62.1" cy="48.1" r="2.2"/>
	</g>
</g>
</svg>
