<svg xmlns="http://www.w3.org/2000/svg" viewBox="0 0 22.86 24.56"><defs><style>.cls-1{fill:#fff;stroke:#343434;stroke-linecap:round;stroke-linejoin:round;stroke-width:0.86px;}.cls-2{fill:#343434;}</style></defs><title>icon-Fichier 5</title><g id="Calque_2" data-name="Calque 2"><g id="Calque_1-2" data-name="Calque 1"><circle class="cls-1" cx="11.43" cy="11.43" r="11"/><path class="cls-1" d="M4,16.63S.13,24,.63,24.13s9.8-4.4,9.8-4.4"/><path class="cls-2" d="M10.47,12.73l0-.41a3.67,3.67,0,0,1,1-2.78,3.54,3.54,0,0,0,1.12-2.2C12.55,6.52,12,6,11,6a2.87,2.87,0,0,0-1.61.49L9,5.44a4.18,4.18,0,0,1,2.28-.64A2.36,2.36,0,0,1,14,7.16,4.36,4.36,0,0,1,12.61,10a3.17,3.17,0,0,0-.91,2.36l0,.41Zm-.35,3.09a1,1,0,0,1,1-1.15c.56,0,.94.48.94,1.15a1,1,0,1,1-1.9,0Z"/></g></g></svg>