<?xml version="1.0" encoding="utf-8"?>
<!-- Generator: Adobe Illustrator 23.0.1, SVG Export Plug-In . SVG Version: 6.00 Build 0)  -->
<svg version="1.1" id="Calque_1" xmlns="http://www.w3.org/2000/svg" xmlns:xlink="http://www.w3.org/1999/xlink" x="0px" y="0px"
	 viewBox="0 0 21.5 23.5" style="enable-background:new 0 0 21.5 23.5;" xml:space="preserve">
<style type="text/css">
	.st0{fill:#FFFFFF;stroke:#343434;stroke-width:0.5408;stroke-linecap:round;stroke-linejoin:round;stroke-miterlimit:10;}
	.st1{fill:#E04A38;}
	.st2{fill:none;stroke:#343434;stroke-width:0.5563;stroke-linecap:round;stroke-linejoin:round;stroke-miterlimit:10;}
	.st3{fill:#343434;}
</style>
<polygon class="st0" points="18.3,3.4 12.9,3.4 12.3,0.3 18.9,0.3 "/>
<polygon class="st0" points="19.4,2 11.8,2 11.8,3 12.4,3 12.4,22.2 18.7,22.2 18.7,3 19.4,3 "/>
<rect x="9.9" y="3.8" class="st0" width="11.3" height="19.4"/>
<rect x="13.1" y="4.1" class="st1" width="4.9" height="18.9"/>
<ellipse class="st0" cx="15.6" cy="13.2" rx="3.9" ry="1.9"/>
<path class="st2" d="M6.9,15.6c0,0-0.2,1.3,4.2,6.7c0.1,0.1,0.2,0.3,0.4,0.4"/>
<path class="st3" d="M8.6,18.6c-0.3-2.4-1-6.5-1.9-7.7c-0.8-1-1.4-1.5-1.1-2c0.3-0.5,0.9-0.2,1.5,1.3S9,17.7,8.6,18.6z"/>
<path class="st3" d="M8.3,18.6c-1.8-1.5-4.9-4.5-5.4-5.8c-0.4-1.2-0.5-2-1.1-2s-0.7,0.6,0.3,2S7.3,18.5,8.3,18.6z"/>
<path class="st3" d="M8.4,18.7c0,0-3.6-7.7-3.9-8.2c-0.4-0.5-0.3-1.2-0.7-1c-0.7,0.4-0.3,0.8,0.1,1.2C4.3,11.4,8.4,18.7,8.4,18.7z"
	/>
<path class="st0" d="M0.4,15.7c0.7-1.4,2.7-0.5,5.1,0.7c1.1,0.5,1.2,2.5,2.7,1.9c0.1,0,0.1,0.1,0.2,0.2c-0.2-0.9-0.4-2.2-0.2-3.5
	c0.3-2.6,0.7-4.8,2.2-4.6c1.6,0.2,1.4,2.4,1,5C11,18,9.7,20,9.1,19.9c0,0,0,0,0,0c0,0,0,0,0,0c-0.2,0.5-2.7,0.5-5.1-0.7
	C1.6,18.1-0.3,17.1,0.4,15.7z"/>
<ellipse transform="matrix(0.8802 -0.4745 0.4745 0.8802 -6.5926 5.1274)" class="st0" cx="6.9" cy="15.6" rx="1.7" ry="4.8"/>
</svg>
