<svg xmlns="http://www.w3.org/2000/svg" viewBox="0 0 29.54 29.07"><defs><style>.cls-1,.cls-4{fill:#fff;}.cls-1,.cls-3,.cls-5,.cls-6{stroke:#343434;stroke-linecap:round;stroke-linejoin:round;}.cls-1,.cls-5{stroke-width:0.92px;}.cls-2,.cls-6{fill:#e04a38;}.cls-3,.cls-5{fill:none;}.cls-3{stroke-width:0.87px;}.cls-6{stroke-width:0.85px;}.cls-7{fill:#343434;}</style></defs><title>icon-Fichier 4</title><g id="Calque_2" data-name="Calque 2"><g id="Calque_1-2" data-name="Calque 1"><rect class="cls-1" x="0.54" y="11.14" width="13.77" height="17.13"/><path class="cls-2" d="M12.42,24.38V12.66h-10V24.38A1.53,1.53,0,0,1,4,25.91h6.92A1.52,1.52,0,0,1,12.42,24.38Z"/><circle class="cls-3" cx="7.43" cy="15.63" r="3.65"/><rect class="cls-4" x="0.46" y="0.63" width="18.41" height="12.03" rx="0.68"/><rect class="cls-5" x="0.46" y="0.63" width="18.41" height="12.03" rx="0.68"/><rect class="cls-6" x="0.46" y="3.13" width="18.41" height="2.24"/><circle class="cls-5" cx="13.33" cy="9.34" r="1.57"/><circle class="cls-1" cx="15.63" cy="9.34" r="1.57"/><circle class="cls-1" cx="22.88" cy="22.41" r="6.2"/><path class="cls-7" d="M25,26a3.27,3.27,0,0,1-1.8.51,3.15,3.15,0,0,1-2.44-1.08,3.68,3.68,0,0,1-.87-2.07h-.75v-.59h.69v-.18a4.63,4.63,0,0,1,0-.54h-.72v-.6H20a3.78,3.78,0,0,1,1-2,3.16,3.16,0,0,1,2.38-1,3.35,3.35,0,0,1,1.61.39l-.25.79a2.74,2.74,0,0,0-1.34-.34,2.09,2.09,0,0,0-1.6.67,2.81,2.81,0,0,0-.72,1.53h3.36v.6H20.94c0,.15,0,.34,0,.5v.22h3.49v.59H21A2.89,2.89,0,0,0,21.67,25a2.27,2.27,0,0,0,1.7.7,3,3,0,0,0,1.46-.4Z"/><polyline class="cls-5" points="20.86 2.14 22.55 0.46 24.23 2.14"/><line class="cls-5" x1="22.55" y1="0.46" x2="22.55" y2="11.67"/><line class="cls-5" x1="22.55" y1="13.58" x2="22.55" y2="14.59"/><polyline class="cls-5" points="25.27 4.96 26.95 3.27 28.63 4.96"/><line class="cls-5" x1="26.95" y1="3.27" x2="26.95" y2="12.07"/><line class="cls-5" x1="26.95" y1="13.98" x2="26.95" y2="14.98"/></g></g></svg>