<?xml version="1.0" encoding="utf-8"?>
<!-- Generator: Adobe Illustrator 23.0.1, SVG Export Plug-In . SVG Version: 6.00 Build 0)  -->
<svg version="1.1" id="Calque_1" xmlns="http://www.w3.org/2000/svg" xmlns:xlink="http://www.w3.org/1999/xlink" x="0px" y="0px"
	 viewBox="0 0 23.5 23.9" style="enable-background:new 0 0 23.5 23.9;" xml:space="preserve">
<style type="text/css">
	.st0{fill:#FFFFFF;stroke:#343434;stroke-width:0.5408;stroke-linecap:round;stroke-linejoin:round;stroke-miterlimit:10;}
	.st1{fill:#E04A38;}
	.st2{fill:none;stroke:#343434;stroke-width:0.4808;stroke-linecap:round;stroke-linejoin:round;stroke-miterlimit:10;}
	.st3{fill:#E04A38;stroke:#343434;stroke-width:0.5408;stroke-linecap:round;stroke-linejoin:round;stroke-miterlimit:10;}
	.st4{fill:#E04A38;stroke:#343434;stroke-width:0.25;stroke-linecap:round;stroke-linejoin:round;stroke-miterlimit:10;}
</style>
<g>
	<g>
		<rect x="11.2" y="1" class="st0" width="11.5" height="20.6"/>
		<rect x="14.6" y="2.1" class="st1" width="4.8" height="18.5"/>
		<rect x="11.2" y="1.1" class="st2" width="11.5" height="20.6"/>
	</g>
	<rect x="10.6" y="0.3" class="st0" width="12.7" height="1.9"/>
	<rect x="10.6" y="20.2" class="st0" width="12.7" height="1.9"/>
</g>
<path class="st3" d="M6.9,22.7c0.8-0.1,1.5,0.1,2.3,0c0.6-0.1,1.2-0.2,1.7,0.1c0.1,0,0.2,0.1,0.3,0.1c0.2,0.1,0.5,0,0.7,0
	c2-0.2,4,0.1,5.9-0.6c-0.5,0.2-1.1-0.4-1.4-0.7c-0.5-0.4-0.8-1-1.3-1.5c-0.5-0.4-1.3-0.5-1.8-0.9c-0.3-0.2-0.4-0.5-0.7-0.8
	c-0.5-0.5-1.3-0.9-1.3-1.6c-0.5-0.1-1-0.4-1.4-0.8c0.1,0.3-0.2,0.5-0.4,0.6S8.8,16.8,8.7,17c-0.1,0.1-0.1,0.2-0.1,0.3
	c-0.1,0.2-0.2,0.4-0.3,0.6c-0.3,0.4-0.6,0.9-0.9,1.3c-0.2,0.3-0.5,0.7-0.8,0.8c-0.4,0.2-0.8,0.1-1.2,0.4c-0.2,0.2-0.4,0.5-0.7,0.7
	c-0.4,0.3-0.9,0.4-1.2,0.8c0,0-0.1,0.1-0.1,0.2c0,0.2,0.3,0.3,0.5,0.3c0.5,0,1.1,0.1,1.6,0.3"/>
<ellipse class="st4" cx="1.2" cy="23.1" rx="1.1" ry="0.3"/>
<ellipse class="st4" cx="3.6" cy="23.6" rx="0.7" ry="0.2"/>
<ellipse class="st0" cx="16.9" cy="11.6" rx="4" ry="1.9"/>
</svg>
