<?xml version="1.0" encoding="utf-8"?>
<!-- Generator: Adobe Illustrator 23.0.1, SVG Export Plug-In . SVG Version: 6.00 Build 0)  -->
<svg version="1.1" id="Calque_1" xmlns="http://www.w3.org/2000/svg" xmlns:xlink="http://www.w3.org/1999/xlink" x="0px" y="0px"
	 viewBox="0 0 22.1 23" style="enable-background:new 0 0 22.1 23;" xml:space="preserve">
<style type="text/css">
	.st0{fill:#FFFFFF;stroke:#343434;stroke-width:0.5408;stroke-linecap:round;stroke-linejoin:round;stroke-miterlimit:10;}
	.st1{fill:#E04A38;}
	.st2{fill:#343434;}
	.st3{fill:none;stroke:#343434;stroke-width:0.5408;stroke-linecap:round;stroke-linejoin:round;stroke-miterlimit:10;}
	.st4{fill:#FFFFFF;stroke:#343434;stroke-width:0.5408;stroke-miterlimit:10;}
</style>
<g>
	<path class="st0" d="M17.8,15c-0.2,0-0.5-0.1-0.6-0.3c-0.2-0.3-0.1-0.8,0.2-1c0.8-0.6,3-2.3,3-4c0-0.9,0-1.9,0-2.3h-3.9
		c-0.4,0-0.7-0.3-0.7-0.7S16,6,16.4,6h4.1c0.7,0,1.3,0.6,1.3,1.3c0,0,0,1.3,0,2.5c0,2.7-3.5,5.1-3.6,5.2C18.1,15,17.9,15,17.8,15z"
		/>
</g>
<rect x="12.4" y="0.3" class="st0" width="3.1" height="2.5"/>
<rect x="11.7" y="2.4" class="st0" width="4.5" height="2.3"/>
<path class="st0" d="M17.8,22.5l1.9-6.9c0,0-2-3.1-2.6-5.8c-0.6-2.7-0.5-4.1-0.5-4.6s0-1-1.2-1s-3.7,0-5,0c-0.4,0-0.9-0.1-0.9,0.6
	c0,0.4,0.4,0.6,1.3,1.1s1.5,1.2,1.1,3c-0.8,3.1-2.9,6.9-2.9,6.9l1.6,6.8H17.8z"/>
<circle class="st1" cx="14.2" cy="16.6" r="3.8"/>
<rect x="12.5" y="14.9" class="st2" width="3.5" height="0.6"/>
<rect x="12.5" y="16.3" class="st2" width="3.5" height="0.6"/>
<rect x="12.5" y="17.7" class="st2" width="3.5" height="0.6"/>
<g>
	<ellipse transform="matrix(0.7927 -0.6097 0.6097 0.7927 -8.4347 9.4426)" class="st0" cx="9.7" cy="17.1" rx="2.8" ry="3.3"/>
	<path class="st3" d="M4.6,13.6c0,0,1.5-0.1,2.8,1"/>
</g>
<ellipse class="st0" cx="6.5" cy="19.4" rx="2.8" ry="3.3"/>
<path class="st4" d="M7.9,20.4c-0.2,0.3-0.4,0.6-0.8,0.8"/>
<path class="st4" d="M6.5,17.5c0.9,0,1.6,0.9,1.6,1.9c0,0.2,0,0.4-0.1,0.5"/>
<path class="st0" d="M3.3,16.7c-1.2,1.3-3,1.5-3,1.5s0.1-1.9,1.2-3.1s3-1.5,3-1.5S4.5,15.5,3.3,16.7z"/>
<path class="st0" d="M7.3,12.4c1.1-1.1,1.2-2.7,1.2-2.7s-1.6,0.1-2.7,1.1s-1.2,2.7-1.2,2.7S6.2,13.5,7.3,12.4z"/>
<path class="st3" d="M4.7,13.5c0,0-0.4,1.9,0.4,3"/>
<path class="st4" d="M11.4,17.1c0.1,0.4,0,0.8-0.2,1.1"/>
<path class="st4" d="M8.6,15.5c0.7-0.5,1.8-0.2,2.4,0.7c0.1,0.1,0.2,0.3,0.2,0.5"/>
</svg>
