<svg xmlns="http://www.w3.org/2000/svg" viewBox="0 0 32.23 28.22"><defs><style>.cls-1{fill:#fff;stroke:#343434;stroke-linecap:round;stroke-linejoin:round;stroke-width:0.99px;}.cls-2{fill:#e04a38;}</style></defs><title>icon-Fichier 3</title><g id="Calque_2" data-name="Calque 2"><g id="Calque_1-2" data-name="Calque 1"><rect class="cls-1" x="11.52" y="4.1" width="15.92" height="15.92" transform="translate(-2.97 7.47) rotate(-20.2)"/><path class="cls-1" d="M14.81,21.18,7.22.55h0L1.68.5A1.19,1.19,0,0,0,.5,1.71,1.2,1.2,0,0,0,1.71,2.9L5.57,3l7,19a1.2,1.2,0,1,0,2.25-.82Z"/><path class="cls-1" d="M31,18.37,18.16,23.21a1.15,1.15,0,0,1-1.47-.68l0-.1A1.15,1.15,0,0,1,17.33,21l12.83-4.85a1.16,1.16,0,0,1,1.47.68l0,.11A1.14,1.14,0,0,1,31,18.37Z"/><circle class="cls-2" cx="19.46" cy="12.05" r="4.17"/><circle class="cls-1" cx="16.01" cy="23.14" r="4.58"/><circle class="cls-1" cx="16.01" cy="23.14" r="1.87"/><rect class="cls-1" x="16.08" y="4.42" width="3.1" height="5.82" transform="translate(-1.45 6.54) rotate(-20.2)"/></g></g></svg>