<?xml version="1.0" encoding="utf-8"?>
<!-- Generator: Adobe Illustrator 23.0.1, SVG Export Plug-In . SVG Version: 6.00 Build 0)  -->
<svg version="1.1" id="Calque_1" xmlns="http://www.w3.org/2000/svg" xmlns:xlink="http://www.w3.org/1999/xlink" x="0px" y="0px"
	 viewBox="0 0 26.7 26.6" style="enable-background:new 0 0 26.7 26.6;" xml:space="preserve">
<style type="text/css">
	.st0{fill:#FFFFFF;stroke:#343434;stroke-width:0.9;stroke-linecap:round;stroke-linejoin:round;}
	.st1{clip-path:url(#SVGID_2_);}
	.st2{fill:#E04A38;stroke:#343434;stroke-width:0.9;stroke-linecap:round;stroke-linejoin:round;}
	.st3{fill:none;stroke:#343434;stroke-width:0.9;stroke-linecap:round;stroke-linejoin:round;}
</style>
<title>icon-Fichier 1</title>
<g>
	<g id="Calque_1-2">
		<path class="st0" d="M7.7,3.9l1.6,2.5c0.3,0.5,0.2,1.1-0.2,1.5l-2,1.6c-0.4,0.3-0.6,0.9-0.3,1.4c1,1.9,2.3,3.6,3.9,5.1
			c1.5,1.6,3.2,2.9,5.1,3.9c0.5,0.3,1.1,0.1,1.4-0.3l1.6-2c0.4-0.5,1-0.6,1.5-0.3l2.5,1.7l2.9,1.9c0.5,0.3,0.7,1,0.4,1.5l-1.4,2.3
			c-0.4,0.6-0.9,1.1-1.6,1.3c-2.2,0.6-7.2,0.7-15.2-7.2S0.1,5.8,0.7,3.6C0.9,2.9,1.3,2.3,2,2l2.3-1.3C4.7,0.3,5.4,0.5,5.7,1L7.7,3.9
			z"/>
		<g>
			<defs>
				<path id="SVGID_1_" d="M7.7,3.9l1.6,2.5c0.3,0.5,0.2,1.1-0.2,1.5l-2,1.6c-0.4,0.3-0.6,0.9-0.3,1.4c1,1.9,2.3,3.6,3.9,5.1
					c1.5,1.6,3.2,2.9,5.1,3.9c0.5,0.3,1.1,0.1,1.4-0.3l1.6-2c0.4-0.5,1-0.6,1.5-0.3l2.5,1.7l2.9,1.9c0.5,0.3,0.7,1,0.4,1.5l-1.4,2.3
					c-0.4,0.6-0.9,1.1-1.6,1.3c-2.2,0.6-7.2,0.7-15.2-7.2S0.1,5.8,0.7,3.6C0.9,2.9,1.3,2.3,2,2l2.3-1.3C4.7,0.3,5.4,0.5,5.7,1
					L7.7,3.9z"/>
			</defs>
			<clipPath id="SVGID_2_">
				<use xlink:href="#SVGID_1_"  style="overflow:visible;"/>
			</clipPath>
			<g class="st1">
				<path class="st2" d="M-0.7-0.5c1.1,2.5,2.5,5,4.1,7.3c1.7,2.5,3.7,4.9,5.9,7l8.4-2.8L11.7-2.4L7-5L-0.7-0.5z"/>
				<path class="st2" d="M26.3,26.5c-2.5-1.1-5-2.5-7.3-4.1c-2.5-1.7-4.9-3.7-7-5.9l2.9-8.4l13.3,6.1l2.7,4.6L26.3,26.5z"/>
			</g>
		</g>
		<path class="st3" d="M7.7,3.9l1.6,2.5c0.3,0.5,0.2,1.1-0.2,1.5l-2,1.6c-0.4,0.3-0.6,0.9-0.3,1.4c1,1.9,2.3,3.6,3.9,5.1
			c1.5,1.6,3.2,2.9,5.1,3.9c0.5,0.3,1.1,0.1,1.4-0.3l1.6-2c0.4-0.5,1-0.6,1.5-0.3l2.5,1.7l2.9,1.9c0.5,0.3,0.7,1,0.4,1.5l-1.4,2.3
			c-0.4,0.6-0.9,1.1-1.6,1.3c-2.2,0.6-7.2,0.7-15.2-7.2S0.1,5.8,0.7,3.6C0.9,2.9,1.3,2.3,2,2l2.3-1.3C4.7,0.3,5.4,0.5,5.7,1L7.7,3.9
			z"/>
	</g>
</g>
</svg>
