<?xml version="1.0" encoding="utf-8"?>
<!-- Generator: Adobe Illustrator 23.0.1, SVG Export Plug-In . SVG Version: 6.00 Build 0)  -->
<svg version="1.1" id="Calque_1" xmlns="http://www.w3.org/2000/svg" xmlns:xlink="http://www.w3.org/1999/xlink" x="0px" y="0px"
	 viewBox="0 0 19.3 24" style="enable-background:new 0 0 19.3 24;" xml:space="preserve">
<style type="text/css">
	.st0{fill:#FFFFFF;}
	.st1{fill:none;stroke:#343434;stroke-width:0.5654;stroke-linecap:round;stroke-linejoin:round;stroke-miterlimit:10;}
	.st2{fill:#FFFFFF;stroke:#343434;stroke-width:0.5654;stroke-linecap:round;stroke-linejoin:round;stroke-miterlimit:10;}
	.st3{fill:#FFFFFF;stroke:#343434;stroke-width:0.5654;stroke-miterlimit:10;}
	.st4{fill:#E04A38;}
	.st5{fill:#343434;}
</style>
<g>
	<g>
		<path class="st0" d="M15.7,15.6c0,0,1.8-0.7,1.8-2.4c0-1-0.7-1.5-1.3-1.8V6.8c0-3.6-2.9-6.4-6.4-6.4c-3.6,0-6.4,2.9-6.4,6.4
			c0,0-0.2,3.6-0.2,4.7c-0.6,0.3-1.3,0.8-1.3,1.8c0,1.7,1.8,2.4,1.8,2.4S1.4,16.9,2,19s5.4,2,5.4,2l2.3-2.2l2.3,2.2
			c0,0,4.8,0.1,5.4-2S15.7,15.6,15.7,15.6z M9.8,13.3l-0.1,0.4l-0.2-0.6C9.6,13.2,9.7,13.3,9.8,13.3z"/>
	</g>
	<g>
		<path class="st1" d="M15.7,15.6c0,0,1.8-0.7,1.8-2.4c0-1-0.7-1.5-1.3-1.8V6.8c0-3.6-2.9-6.4-6.4-6.4c-3.6,0-6.4,2.9-6.4,6.4
			c0,0-0.2,3.6-0.2,4.7c-0.6,0.3-1.3,0.8-1.3,1.8c0,1.7,1.8,2.4,1.8,2.4S1.4,16.9,2,19s5.4,2,5.4,2l2.3-2.2l2.3,2.2
			c0,0,4.8,0.1,5.4-2S15.7,15.6,15.7,15.6z M9.8,13.3l-0.1,0.4l-0.2-0.6C9.6,13.2,9.7,13.3,9.8,13.3z"/>
	</g>
</g>
<path class="st2" d="M9.6,16.4c1.1,0,4.1-0.1,6.4,1.2c2.2,1.2,3,6.1,3,6.1H0.3c0,0,0.8-4.8,3-6.1C5.6,16.3,8.6,16.4,9.6,16.4"/>
<polyline class="st3" points="16.8,18.5 9.7,21.4 4.5,19.3 "/>
<line class="st3" x1="3.3" y1="18.9" x2="2.4" y2="18.5"/>
<line class="st3" x1="4.4" y1="20.5" x2="4.1" y2="23.6"/>
<line class="st3" x1="14.7" y1="20.5" x2="15" y2="23.6"/>
<line class="st3" x1="12.7" y1="20.2" x2="12.7" y2="22.1"/>
<line class="st3" x1="6.6" y1="20.2" x2="6.6" y2="22.1"/>
<path class="st4" d="M17.4,4c-0.2-0.5-0.7-0.8-1.2-0.7c-0.2-0.4-0.6-0.8-1.1-0.8c-0.6,0-1.1,0.5-1.1,1c-0.5,0-1,0.4-1.1,0.9
	c-0.1,0.5,0.2,1,0.6,1.2c-0.1,0.5,0.1,0.9,0.5,1.2c0.5,0.3,1,0.2,1.4-0.2c0.4,0.2,0.9,0.2,1.3-0.1c0.4-0.3,0.5-0.9,0.3-1.3
	C17.4,5,17.5,4.5,17.4,4z M15.1,4.9C15.1,4.8,15.1,4.8,15.1,4.9C15.2,4.8,15.2,4.8,15.1,4.9C15.2,4.8,15.2,4.8,15.1,4.9
	C15.2,4.8,15.2,4.9,15.1,4.9C15.2,4.9,15.1,4.9,15.1,4.9z"/>
<circle class="st5" cx="15.1" cy="4.9" r="0.6"/>
<circle class="st2" cx="14.5" cy="10.4" r="1.5"/>
<circle class="st2" cx="5" cy="10.4" r="1.5"/>
<ellipse class="st2" cx="9.8" cy="15.9" rx="2.3" ry="2.4"/>
<path class="st2" d="M5,11.5c0,2.6,2.1,4.7,4.7,4.7s4.7-2.1,4.7-4.7V8c0,0-2.6-1.2-3.2-2.5C9.9,7,8.3,7.8,4.9,7.8
	C4.9,8,5,11.5,5,11.5z"/>
<path class="st2" d="M7.3,11.6c0,1.3,1.1,2.4,2.4,2.4s2.4-1.1,2.4-2.4"/>
<circle class="st2" cx="7.2" cy="9.6" r="0.6"/>
<circle class="st2" cx="12.1" cy="9.6" r="0.6"/>
<circle class="st4" cx="9.7" cy="22" r="2.1"/>
</svg>
