<?xml version="1.0" encoding="utf-8"?>
<!-- Generator: Adobe Illustrator 23.0.1, SVG Export Plug-In . SVG Version: 6.00 Build 0)  -->
<svg version="1.1" id="Calque_1" xmlns="http://www.w3.org/2000/svg" xmlns:xlink="http://www.w3.org/1999/xlink" x="0px" y="0px"
	 viewBox="0 0 24.1 22.8" style="enable-background:new 0 0 24.1 22.8;" xml:space="preserve">
<style type="text/css">
	.st0{fill:#FFFFFF;stroke:#343434;stroke-width:0.5027;stroke-linecap:round;stroke-linejoin:round;stroke-miterlimit:10;}
	.st1{fill:#E04A38;}
	
		.st2{clip-path:url(#SVGID_2_);fill:#E04A38;stroke:#343434;stroke-width:0.5027;stroke-linecap:round;stroke-linejoin:round;stroke-miterlimit:10;}
	.st3{clip-path:url(#SVGID_2_);fill:#E04A38;}
	
		.st4{clip-path:url(#SVGID_4_);fill:#E04A38;stroke:#343434;stroke-width:0.5027;stroke-linecap:round;stroke-linejoin:round;stroke-miterlimit:10;}
	.st5{fill:none;stroke:#343434;stroke-width:0.5027;stroke-linecap:round;stroke-linejoin:round;stroke-miterlimit:10;}
</style>
<polygon class="st0" points="22.5,0.3 11,0.3 13.4,19 10.8,20.5 21.6,20.7 23.9,17.6 "/>
<polygon class="st0" points="21.5,20.7 10,20.7 11,0.3 22.5,0.3 "/>
<polygon class="st0" points="21.7,2.3 10.2,2.3 11,0.3 22.5,0.3 "/>
<polygon class="st1" points="18,20.4 13.5,20.4 14.3,3.7 18.8,3.7 "/>
<polygon class="st0" points="21.7,2.3 10.2,2.3 10.5,3.5 22,3.5 "/>
<ellipse class="st0" cx="16.2" cy="11.6" rx="4" ry="1.9"/>
<polygon class="st0" points="0.3,20 5.3,22.5 5.3,19.1 0.3,17.1 "/>
<polygon class="st0" points="5.9,15.4 11.4,16.7 5.3,19.1 0.3,17.1 "/>
<polygon class="st0" points="11.4,20.2 5.3,22.5 5.3,19.1 11.4,16.8 "/>
<g>
	<defs>
		<polygon id="SVGID_1_" points="11.4,20.2 5.3,22.5 5.3,19.1 11.4,16.8 		"/>
	</defs>
	<clipPath id="SVGID_2_">
		<use xlink:href="#SVGID_1_"  style="overflow:visible;"/>
	</clipPath>
	<path class="st2" d="M12.2,18.9c0,0-0.2,1,0.4,1.7s1.3,1.1,1.7,0.8s0.2-1-0.4-1.7S12.2,18.9,12.2,18.9z"/>
	<path class="st2" d="M10.4,20.6c0,0,1.1-0.1,1.7-0.9c0.6-0.7,0.8-1.5,0.4-1.7c-0.3-0.2-1.1,0.1-1.7,0.9
		C10.2,19.6,10.4,20.6,10.4,20.6z"/>
	<path class="st3" d="M7.8,25c0,0,0.7-0.8,0.5-1.7c-0.1-0.9-0.6-1.6-1-1.5s-0.7,0.8-0.5,1.7C6.9,24.4,7.8,25,7.8,25z"/>
	<path class="st2" d="M6.9,22.6c0,0,0.8-0.3,1.1-0.9c0.3-0.6,0.3-1.2,0-1.4c-0.3-0.1-0.8,0.3-1.1,0.9C6.6,21.9,6.9,22.6,6.9,22.6z"
		/>
	<path class="st2" d="M6.7,20.3c0,0-0.4-0.7-1.1-1c-0.7-0.2-1.3-0.2-1.5,0.1s0.4,0.7,1.1,1C6,20.6,6.7,20.3,6.7,20.3z"/>
	<path class="st2" d="M9.4,20.2c0,0,0.4-1-0.1-1.8c-0.4-0.8-1.1-1.3-1.5-1.1c-0.4,0.2-0.4,1,0.1,1.8C8.4,19.9,9.4,20.2,9.4,20.2z"/>
</g>
<g>
	<defs>
		<polygon id="SVGID_3_" points="0.3,20 5.3,22.5 5.3,19.1 0.3,17.1 		"/>
	</defs>
	<clipPath id="SVGID_4_">
		<use xlink:href="#SVGID_3_"  style="overflow:visible;"/>
	</clipPath>
	<path class="st4" d="M6.7,20.2c0,0-0.5-0.8-1.4-1.1s-1.7-0.1-1.8,0.3s0.5,0.8,1.4,1.1S6.7,20.2,6.7,20.2z"/>
	<path class="st4" d="M3.4,22.3c0,0,0.4-0.8,0-1.5s-0.8-1.1-1.2-1c-0.3,0.1-0.4,0.8,0,1.5S3.4,22.3,3.4,22.3z"/>
	<path class="st4" d="M2.2,18.7c0,0-0.7-0.6-1.5-0.6s-1.4,0.3-1.4,0.6c0,1.7,0.5,0.6,1.5,0.6C1.5,19.3,2.2,18.7,2.2,18.7z"/>
</g>
<polygon class="st5" points="11.4,20.2 5.3,22.5 5.3,19.1 11.4,16.8 "/>
<polygon class="st5" points="0.3,20 5.3,22.5 5.3,19.1 0.3,17.1 "/>
</svg>
