<?xml version="1.0" encoding="utf-8"?>
<!-- Generator: Adobe Illustrator 23.0.1, SVG Export Plug-In . SVG Version: 6.00 Build 0)  -->
<svg version="1.1" id="Calque_1" xmlns="http://www.w3.org/2000/svg" xmlns:xlink="http://www.w3.org/1999/xlink" x="0px" y="0px"
	 viewBox="0 0 72.5 54.3" style="enable-background:new 0 0 72.5 54.3;" xml:space="preserve">
<style type="text/css">
	.st0{fill:#E04A38;}
	.st1{fill:#FFFFFF;stroke:#343434;stroke-width:1.4442;stroke-linecap:round;stroke-linejoin:round;stroke-miterlimit:10;}
	.st2{fill:none;stroke:#343434;stroke-width:1.4442;stroke-linecap:round;stroke-linejoin:round;stroke-miterlimit:10;}
	.st3{fill:none;stroke:#FFFFFF;stroke-width:0.7335;stroke-miterlimit:10;}
</style>
<g>
	<circle class="st0" cx="16.3" cy="16.3" r="16.3"/>
	<path class="st1" d="M71.1,47.4H24.7c-0.4,0-0.7-0.3-0.7-0.7v-1.5c0-0.4,0.3-0.7,0.7-0.7h46.4c0.4,0,0.7,0.3,0.7,0.7v1.5
		C71.8,47.1,71.5,47.4,71.1,47.4z"/>
	<polygon class="st1" points="65.3,39 34.8,39 34.8,27.9 63.8,27.9 	"/>
	<rect x="38" y="35.7" class="st1" width="30.4" height="11.2"/>
	<rect x="27.1" y="20.7" class="st1" width="30.4" height="26.1"/>
	<rect x="27.1" y="28.2" class="st0" width="30.4" height="11.1"/>
	<rect x="27.1" y="20.7" class="st2" width="30.4" height="26.1"/>
	<circle class="st1" cx="36.1" cy="48.1" r="5.5"/>
	<circle class="st1" cx="36.1" cy="48.1" r="2.2"/>
	<circle class="st1" cx="62.2" cy="48.1" r="5.5"/>
	<circle class="st1" cx="62.2" cy="48.1" r="2.2"/>
	<path class="st3" d="M16.2,8c-3,0-5.5,2.5-5.5,5.5S16.2,24,16.2,24s5.5-7.4,5.5-10.5S19.3,8,16.2,8z M16.2,15.7
		c-1.2,0-2.2-1-2.2-2.2s1-2.2,2.2-2.2s2.2,1,2.2,2.2S17.4,15.7,16.2,15.7z"/>
</g>
</svg>
