<?xml version="1.0" encoding="utf-8"?>
<!-- Generator: Adobe Illustrator 23.0.1, SVG Export Plug-In . SVG Version: 6.00 Build 0)  -->
<svg version="1.1" id="Calque_1" xmlns="http://www.w3.org/2000/svg" xmlns:xlink="http://www.w3.org/1999/xlink" x="0px" y="0px"
	 viewBox="0 0 22 33" style="enable-background:new 0 0 22 33;" xml:space="preserve">
<g>
	<g>
		<path d="M6.7,29h2.6l5.2-2.6h-2.6L6.7,29z M14.8,25H6v1h9.4C16.4,25.5,16.1,25,14.8,25z M19.7,18.4l-2.7-1c0-0.1-0.1-0.1-0.1-0.2
			l-1.5-1.6c-0.1-0.1-0.2-0.1-0.4-0.1c0,0,0,0,0,0v-1.3c0.7-0.8,1.2-1.8,1.4-2.9H17c0.8,0,1.5-0.7,1.5-1.5V8.2
			c0-0.8-0.7-1.5-1.5-1.5h0V4.8c0-1.3-0.6-2.5-1.8-3.4C14.1,0.5,12.6,0,11,0C9.4,0,7.9,0.5,6.8,1.4C5.7,2.3,5,3.5,5,4.8v1.9h0
			c-0.8,0-1.5,0.7-1.5,1.5v1.6c0,0.8,0.7,1.5,1.5,1.5h0.6c0.2,1.1,0.7,2.1,1.4,2.9v1.3c0,0,0,0,0,0c-0.1,0-0.3,0-0.4,0.1l-1.5,1.6
			c-0.1,0.1-0.1,0.1-0.1,0.2l-2.7,1c-1.4,0.5-2.4,1.9-2.3,3.5l0.4,10.6c0,0.3,0.2,0.5,0.5,0.5c0,0,0,0,0,0c0.3,0,0.5-0.2,0.5-0.5
			L0.9,21.9c0-0.3,0-0.7,0.1-1l1.7,1.7c0.5,0.5,0.7,1.2,0.7,1.8v8C3.5,32.8,3.7,33,4,33c0.3,0,0.5-0.2,0.5-0.5v-8c0-1-0.4-1.9-1-2.5
			l-1.9-1.9c0.3-0.3,0.6-0.6,1.1-0.7l2.8-1L7,21c0.2,0.4,0.6,0.6,1,0.7c0.4,0.1,0.8,0,1.2-0.3l0.9-0.7l0.2,0.3
			c0.2,0.2,0.5,0.4,0.8,0.4c0.3,0,0.6-0.1,0.8-0.4l0.2-0.3l0.9,0.7c0.3,0.2,0.6,0.3,0.9,0.3c0.1,0,0.2,0,0.3,0
			c0.4-0.1,0.8-0.3,1-0.7l1.6-2.7l2.8,1c0.4,0.2,0.8,0.4,1.1,0.7L18.6,22c-0.7,0.7-1,1.6-1,2.5v8c0,0.3,0.2,0.5,0.5,0.5
			c0.3,0,0.5-0.2,0.5-0.5v-8c0-0.7,0.3-1.4,0.7-1.8l1.7-1.7c0.1,0.3,0.1,0.6,0.1,1l-0.4,10.6c0,0.3,0.2,0.5,0.5,0.5c0,0,0,0,0,0
			c0.3,0,0.5-0.2,0.5-0.5L22,21.9C22.1,20.3,21.1,18.9,19.7,18.4z M16.5,7.7H17c0.3,0,0.5,0.2,0.5,0.5v1.6c0,0.3-0.2,0.5-0.5,0.5
			h-0.5V7.7z M5.5,10.3H5c-0.3,0-0.5-0.2-0.5-0.5V8.2c0-0.3,0.2-0.5,0.5-0.5h0.5V10.3z M6.5,10.3V7.7h0.2c0.4,0,0.8-0.2,0.9-0.6
			c0.1-0.2,0-0.5-0.3-0.6C7,6.3,6.8,6.4,6.7,6.7c0,0,0,0,0,0H6V4.8C6,2.7,8.2,1,11,1s5,1.7,5,3.8v1.9h-0.7c0,0,0,0,0,0l-0.6-1.6
			c-0.2-0.6-0.8-1-1.4-1H8.7c-0.5,0-1,0.3-1.3,0.7C7.3,5.1,7.3,5.4,7.6,5.5c0.2,0.1,0.5,0.1,0.6-0.2c0.1-0.2,0.3-0.3,0.5-0.3h4.7
			c0.2,0,0.4,0.1,0.5,0.3l0.6,1.6c0.1,0.4,0.5,0.6,0.9,0.6h0.2c0,0.4,0,0.8,0,1.2c0,0.6,0,1.2-0.1,1.8c-0.1,0.5-0.2,1-0.4,1.6
			c-0.1,0.4-0.4,0.8-0.7,1.2c-0.5,0.6-1.3,1.1-2.1,1.4C11.9,14.9,11.5,15,11,15C8.5,15,6.5,12.9,6.5,10.3z M8.6,20.6
			c-0.1,0.1-0.3,0.1-0.4,0.1c-0.1,0-0.3-0.1-0.4-0.2l-1.7-2.9l0.9-0.9l2.5,3.2L8.6,20.6z M11,20.3C11,20.3,11,20.4,11,20.3
			C11,20.4,11,20.3,11,20.3L8,16.5V15c0.9,0.6,1.9,1,3,1c1.1,0,2.2-0.4,3-1v1.5L11,20.3z M14.2,20.5c-0.1,0.1-0.2,0.2-0.4,0.2
			c-0.1,0-0.3,0-0.4-0.1l-0.9-0.7l2.5-3.2l0.9,0.9L14.2,20.5z"/>
	</g>
</g>
</svg>
