<svg xmlns="http://www.w3.org/2000/svg" viewBox="0 0 22.93 17.89"><defs><style>.cls-1{fill:#fff;}</style></defs><title>Fichier 13</title><g id="Calque_2" data-name="Calque 2"><g id="Capa_1" data-name="Capa 1"><path class="cls-1" d="M22.7,4a5.77,5.77,0,0,0-.95-2.61A3.33,3.33,0,0,0,19.41.27h-.15C16.16,0,11.52,0,11.45,0S6.74,0,3.68.35H3.56A3.19,3.19,0,0,0,1.23,1.48a5.52,5.52,0,0,0-1,2.64,39.66,39.66,0,0,0-.23,4V9.92c0,1.94.23,3.93.23,4a5.7,5.7,0,0,0,1,2.61,3.41,3.41,0,0,0,2.37,1.13.83.83,0,0,1,.31,0c1.76.15,7.35.23,7.58.23,0,0,4.71,0,7.81-.35h.11a3.17,3.17,0,0,0,2.34-1.13,5.55,5.55,0,0,0,1-2.64,39.66,39.66,0,0,0,.23-4V8C22.93,6,22.7,4.05,22.7,4Zm-.53,5.87a38.09,38.09,0,0,1-.23,3.89A5.3,5.3,0,0,1,21.13,16a2.5,2.5,0,0,1-1.83.89h-.12c-3.06.23-7.69.23-7.73.23S5.67,17,4,16.84c-.11,0-.23,0-.34,0A2.65,2.65,0,0,1,1.72,16,4.85,4.85,0,0,1,1,13.77s-.23-2-.23-3.89V8.05A38.09,38.09,0,0,1,1,4.16,5.08,5.08,0,0,1,1.72,2a2.57,2.57,0,0,1,1.88-.9h.11C6.78.82,11.41.78,11.45.78s4.67,0,7.73.27h.16a2.48,2.48,0,0,1,1.83.9,5.69,5.69,0,0,1,.77,2.21,30.7,30.7,0,0,1,.23,3.89ZM9,4.67a.33.33,0,0,0-.38,0A.39.39,0,0,0,8.39,5v8.44a.41.41,0,0,0,.19.35.31.31,0,0,0,.19,0,.34.34,0,0,0,.19,0l7.27-4.13a.39.39,0,0,0,.2-.35.42.42,0,0,0-.2-.35Zm.19,8.13V5.68l6.13,3.65Z"/></g></g></svg>