<?xml version="1.0" encoding="utf-8"?>
<!-- Generator: Adobe Illustrator 23.0.1, SVG Export Plug-In . SVG Version: 6.00 Build 0)  -->
<svg version="1.1" id="Calque_1" xmlns="http://www.w3.org/2000/svg" xmlns:xlink="http://www.w3.org/1999/xlink" x="0px" y="0px"
	 viewBox="0 0 32 31" style="enable-background:new 0 0 32 31;" xml:space="preserve">
<style type="text/css">
	.st0{fill:#FFFFFF;}
</style>
<g>
	<g>
		<path class="st0" d="M0.5,5h3.6c0.3,2.2,2.1,4,4.5,4c2.3,0,4.2-1.7,4.5-4h18.4C31.8,5,32,4.7,32,4.5C32,4.2,31.8,4,31.5,4H13.1
			c-0.3-2.2-2.1-4-4.5-4C6.3,0,4.4,1.7,4.1,4H0.5C0.2,4,0,4.2,0,4.5C0,4.7,0.2,5,0.5,5z M5,4c0.2-1.7,1.7-3.1,3.5-3.1
			c1.8,0,3.3,1.3,3.5,3.1c0,0.2,0.1,0.3,0.1,0.5c0,0.2,0,0.3-0.1,0.5C11.9,6.7,10.4,8,8.6,8C6.8,8,5.3,6.7,5,5C5,4.8,5,4.6,5,4.5
			C5,4.3,5,4.1,5,4z M31.5,15h-1.4c-0.3-2.2-2.1-4-4.5-4s-4.2,1.7-4.5,4H0.5C0.2,15,0,15.2,0,15.5S0.2,16,0.5,16h20.6
			c0.3,2.2,2.1,4,4.5,4s4.2-1.7,4.5-4h1.4c0.3,0,0.5-0.2,0.5-0.5S31.8,15,31.5,15z M29.2,16c-0.2,1.7-1.7,3.1-3.5,3.1
			c-1.8,0-3.3-1.3-3.5-3.1c0-0.2-0.1-0.3-0.1-0.5c0-0.2,0-0.3,0.1-0.5c0.2-1.7,1.7-3.1,3.5-3.1c1.8,0,3.3,1.3,3.5,3.1
			c0,0.2,0.1,0.3,0.1,0.5C29.2,15.7,29.2,15.8,29.2,16z M31.5,26.1H21.2c-0.3-2.2-2.1-4-4.5-4c-2.3,0-4.2,1.7-4.5,4H0.5
			c-0.3,0-0.5,0.2-0.5,0.5s0.2,0.5,0.5,0.5h11.7c0.3,2.2,2.1,4,4.5,4c2.3,0,4.2-1.7,4.5-4h10.3c0.3,0,0.5-0.2,0.5-0.5
			S31.8,26.1,31.5,26.1z M20.2,27.1c-0.2,1.7-1.7,3.1-3.5,3.1s-3.3-1.3-3.5-3.1c0-0.2-0.1-0.3-0.1-0.5c0-0.2,0-0.3,0.1-0.5
			c0.2-1.7,1.7-3.1,3.5-3.1s3.3,1.3,3.5,3.1c0,0.2,0.1,0.3,0.1,0.5C20.3,26.7,20.3,26.9,20.2,27.1z"/>
	</g>
</g>
</svg>
