<svg xmlns="http://www.w3.org/2000/svg" viewBox="0 0 22.98 23.31"><defs><style>.cls-1{fill:#fff;}</style></defs><title>Fichier 12</title><g id="Calque_2" data-name="Calque 2"><g id="Capa_1" data-name="Capa 1"><path class="cls-1" d="M15.32,23.31h-4.6V15.54H7.66V10.88h3.06v-2a5.09,5.09,0,0,1,4.56-5h4.25V8.55H15.7a.36.36,0,0,0-.38.38v2h3.83v4.66H15.32Zm-3.83-.78h3.06V14.76h3.83V11.65H14.55V8.93A1.13,1.13,0,0,1,15.7,7.77h3.07V4.66H15.32a4.28,4.28,0,0,0-3.83,4.27v2.72H8.43v3.11h3.06Z"/><path class="cls-1" d="M21.06,23.31H1.91A1.91,1.91,0,0,1,0,21.37V1.94A1.9,1.9,0,0,1,1.91,0H21.06A1.91,1.91,0,0,1,23,1.94V21.37A1.91,1.91,0,0,1,21.06,23.31ZM1.91.78A1.13,1.13,0,0,0,.77,1.94V21.37a1.13,1.13,0,0,0,1.14,1.16H21.06a1.13,1.13,0,0,0,1.15-1.16V1.94A1.13,1.13,0,0,0,21.06.78Z"/></g></g></svg>