<svg xmlns="http://www.w3.org/2000/svg" viewBox="0 0 22.95 18.95"><defs><style>.cls-1{fill:#fff;}</style></defs><title>Fichier 11</title><g id="Calque_2" data-name="Calque 2"><g id="Capa_1" data-name="Capa 1"><path class="cls-1" d="M8.56,19c-3.85,0-7-.67-8.37-1.82A.54.54,0,0,1,0,16.54a.56.56,0,0,1,.51-.36,9.48,9.48,0,0,0,4.91-1.26A4.71,4.71,0,0,1,1.2,11.57a.44.44,0,0,1,.16-.52.53.53,0,0,1,.54,0,3.06,3.06,0,0,0,1.87.48A7.76,7.76,0,0,1,.38,7.22a.48.48,0,0,1,.2-.51.45.45,0,0,1,.54,0,3.15,3.15,0,0,0,1.6.71A5.38,5.38,0,0,1,1.59,1L1.82.51l.39.4C4.63,3.47,6.85,4.66,10.9,5.45V5.29a5.19,5.19,0,0,1,5-5.29h0a7.94,7.94,0,0,1,3.23,1.15s.08,0,.08,0C20,.91,20.91.51,22,0a.41.41,0,0,1,.47.08.4.4,0,0,1,.08.47,5.4,5.4,0,0,1-1,1.7L22.35,2a.53.53,0,0,1,.47.12.53.53,0,0,1,.12.48A3.87,3.87,0,0,1,21,5v.12C21,12.75,15.42,19,8.56,19Zm-7.2-2a17.12,17.12,0,0,0,7.2,1.23c6.43,0,11.69-5.84,11.69-13V4.46l.23-.08A2.74,2.74,0,0,0,21.92,3l-1.51.51a.39.39,0,0,1-.51-.19A.48.48,0,0,1,20,2.76a6.28,6.28,0,0,0,1.44-1.65c-.78.31-1.48.59-2.07.79a.87.87,0,0,1-.7-.08,7.07,7.07,0,0,0-2.8-1h0a4.4,4.4,0,0,0-4.21,4.5V6.4l-.47-.08C6.93,5.53,4.55,4.38,2.06,1.9.89,4.9,3.3,7,4.12,7.58l1,.71H3.89a5.91,5.91,0,0,1-2.42-.43,7.11,7.11,0,0,0,4.09,3.59l-.11.79a7.31,7.31,0,0,0-.94,0,6,6,0,0,1-2.26-.2c.78,1.5,2.14,2.13,4.36,2.13H7.78l-1,.71A9.25,9.25,0,0,1,1.36,16.93Z"/></g></g></svg>