<svg xmlns="http://www.w3.org/2000/svg" viewBox="0 0 37 32"><defs><style>.cls-1{fill:#fff;}.cls-2{fill:#164194;}.cls-3{fill:#e30613;}</style></defs><title>Fichier 10</title><g id="Calque_2" data-name="Calque 2"><g id="Capa_1" data-name="Capa 1"><path class="cls-1" d="M32.5,0H4.5A4.52,4.52,0,0,0,0,4.53V21.66a4.52,4.52,0,0,0,4.5,4.53H7.66c.43,3.29,5,5.81,10.84,5.81s10.41-2.52,10.84-5.81H32.5A4.52,4.52,0,0,0,37,21.66V4.53A4.52,4.52,0,0,0,32.5,0ZM28.33,26.19c-.49,2.65-4.79,4.8-9.83,4.8s-9.34-2.15-9.83-4.8a2.83,2.83,0,0,1-.05-.5,2.94,2.94,0,0,1,.05-.51c.25-1.35,1.5-2.57,3.33-3.44l.5-.23.5-.2a16.16,16.16,0,0,1,5.5-.93,16.16,16.16,0,0,1,5.5.93l.5.2.5.23c1.83.87,3.08,2.09,3.33,3.44a2.94,2.94,0,0,1,.05.51A2.83,2.83,0,0,1,28.33,26.19ZM14.47,28h1.15V26h1.86v-.89H15.62V23.73h2v-.89H14.47Zm7-2.24.1,0a1.8,1.8,0,0,0,.66-.51h0a1.26,1.26,0,0,0,.26-.8,1.31,1.31,0,0,0-.53-1.16,2.91,2.91,0,0,0-1.65-.38h-1.6V28h1.16V26h.62l.12.18L21.78,28h1.29c-.22-.29-.66-.9-1.29-1.79ZM21,25a1.58,1.58,0,0,1-.81.17h-.38V23.73h.35a1.62,1.62,0,0,1,.83.16.54.54,0,0,1,.27.52A.62.62,0,0,1,21,25Z"/><path class="cls-2" d="M1,4.53A3.51,3.51,0,0,1,4.5,1H12V20.6c-2.45,1-4.09,2.68-4.34,4.58H4.5A3.51,3.51,0,0,1,1,21.66Z"/><path class="cls-1" d="M13,1H24V20.22a17.39,17.39,0,0,0-5.5-.85,17.39,17.39,0,0,0-5.5.85Z"/><path class="cls-3" d="M36,21.66a3.51,3.51,0,0,1-3.5,3.52H29.34c-.25-1.9-1.89-3.53-4.34-4.58V1h7.5A3.51,3.51,0,0,1,36,4.53Z"/></g></g></svg>