<?xml version="1.0" encoding="utf-8"?>
<!-- Generator: Adobe Illustrator 23.0.1, SVG Export Plug-In . SVG Version: 6.00 Build 0)  -->
<svg version="1.1" id="Calque_1" xmlns="http://www.w3.org/2000/svg" xmlns:xlink="http://www.w3.org/1999/xlink" x="0px" y="0px"
	 viewBox="0 0 41 25" style="enable-background:new 0 0 41 25;" xml:space="preserve">
<style type="text/css">
	.st0{fill:#1D1D1B;}
</style>
<title>Fichier 16</title>
<g>
	<g id="Capa_1">
		<path class="st0" d="M39.3,11.3l-2.8-3.6c-1.1-1.3-2.8-2.1-4.5-2.2h-0.5v-3c0-1.4-1.2-2.6-2.6-2.6H11.3C9.8,0,8.7,1.2,8.6,2.6v4.8
			H4.7c-0.3,0-0.5,0.2-0.5,0.5c0,0.3,0.2,0.5,0.5,0.5h3.9v4.9H6.7c-0.3,0-0.5,0.2-0.5,0.5s0.2,0.5,0.5,0.5h1.9v6
			c0,1.4,1.2,2.6,2.6,2.6h1.2c0.3,1.5,1.7,2.4,3.2,2.1c1.1-0.2,1.9-1,2.1-2.1h15.2c0.3,1.5,1.7,2.4,3.2,2.1c1-0.2,1.9-1,2.1-2.1
			c1.6-0.1,2.8-1.4,2.8-3v-3.8C40.9,14.3,40.3,12.7,39.3,11.3z M16.8,22.4c0,0.2,0,0.3-0.1,0.5c-0.2,0.7-0.9,1.1-1.6,1.1
			c-0.7,0-1.4-0.5-1.6-1.1c-0.1-0.2-0.1-0.3-0.1-0.5l0,0c0-0.2,0-0.3,0.1-0.5c0.3-0.9,1.2-1.4,2.1-1.2c0.6,0.2,1,0.6,1.2,1.2
			C16.8,22,16.8,22.2,16.8,22.4L16.8,22.4z M30.5,5.5v14.8c0,0.9-0.7,1.6-1.6,1.6H17.8c-0.3-1.5-1.7-2.4-3.1-2.2
			c-1.1,0.2-2,1.1-2.2,2.2h-1.2c-0.9,0-1.6-0.7-1.6-1.6l0,0v-6.1H10c0.3,0,0.5-0.2,0.5-0.5s-0.2-0.5-0.5-0.5H9.6V8.4H13
			c0.3,0,0.5-0.2,0.5-0.5c0-0.3-0.2-0.5-0.5-0.5H9.6V2.6c0-0.9,0.7-1.6,1.6-1.6h17.7c0.9,0,1.6,0.7,1.6,1.6L30.5,5.5z M37.3,22.4
			c0,0.2,0,0.3-0.1,0.5c-0.3,0.9-1.3,1.4-2.1,1.1c-0.7-0.2-1.1-0.8-1.1-1.6l0,0c0-0.2,0-0.3,0.1-0.5c0.2-0.9,1.2-1.4,2.1-1.2
			c0.6,0.2,1,0.6,1.2,1.2C37.3,22.1,37.3,22.2,37.3,22.4L37.3,22.4z M40,19.9c0,1-0.8,1.9-1.8,2c-0.3-1.5-1.7-2.4-3.1-2.2
			c-1.1,0.2-2,1.1-2.2,2.2H31c0.4-0.5,0.6-1,0.6-1.6V6.5H32c1.4,0.1,2.8,0.7,3.7,1.8l2.8,3.6c0.9,1.2,1.4,2.7,1.5,4.2V19.9z
			 M6.6,10.6c0-0.3-0.2-0.5-0.5-0.5c0,0,0,0,0,0H0.5c-0.3,0-0.5,0.2-0.5,0.5s0.2,0.5,0.5,0.5h5.6C6.4,11.1,6.6,10.8,6.6,10.6
			C6.6,10.6,6.6,10.6,6.6,10.6z"/>
	</g>
</g>
</svg>
