<svg xmlns="http://www.w3.org/2000/svg" viewBox="0 0 41.01 25.03"><defs><style>.cls-1{fill:#fff;}</style></defs><title>Fichier 16</title><g id="Calque_2" data-name="Calque 2"><g id="Capa_1" data-name="Capa 1"><path class="cls-1" d="M39.33,11.28,36.49,7.71A6.4,6.4,0,0,0,32,5.55h-.45v-3A2.6,2.6,0,0,0,28.94,0H11.25a2.6,2.6,0,0,0-2.6,2.59V7.38H4.73a.5.5,0,1,0,0,1H8.65v4.89H6.74a.5.5,0,1,0,0,1H8.65V20.3a2.6,2.6,0,0,0,2.6,2.59h1.24a2.69,2.69,0,0,0,5.27,0H32.94a2.7,2.7,0,0,0,5.28,0,3,3,0,0,0,2.79-3V16.07A8.84,8.84,0,0,0,39.33,11.28ZM16.82,22.39a2,2,0,0,1-.09.5A1.7,1.7,0,0,1,15.12,24a1.67,1.67,0,0,1-1.59-1.15,1.65,1.65,0,0,1-.1-.5v0a1.7,1.7,0,0,1,.07-.46,1.69,1.69,0,0,1,3.25,0,1.7,1.7,0,0,1,.07.46ZM30.55,5.55V20.3a1.61,1.61,0,0,1-1.61,1.6H17.77a2.69,2.69,0,0,0-5.29,0H11.25a1.6,1.6,0,0,1-1.6-1.6V14.25H10a.5.5,0,1,0,0-1H9.65V8.37H13a.5.5,0,1,0,0-1H9.65V2.59A1.6,1.6,0,0,1,11.25,1H28.94a1.61,1.61,0,0,1,1.61,1.6ZM37.27,22.4a2.1,2.1,0,0,1-.09.5,1.69,1.69,0,0,1-3.29-.5s0,0,0,0a1.63,1.63,0,0,1,.07-.45,1.68,1.68,0,0,1,3.25,0,1.63,1.63,0,0,1,.07.45ZM40,19.89a2,2,0,0,1-1.79,2,2.69,2.69,0,0,0-5.29,0H31a2.56,2.56,0,0,0,.58-1.61V6.54H32a5.44,5.44,0,0,1,3.71,1.78l2.84,3.57A8,8,0,0,1,40,16.07ZM6.63,10.56a.49.49,0,0,0-.49-.5H.5a.5.5,0,1,0,0,1H6.14A.49.49,0,0,0,6.63,10.56Z"/></g></g></svg>