<svg xmlns="http://www.w3.org/2000/svg" viewBox="0 0 22.98 23.31"><defs><style>.cls-1{fill:#fff;}</style></defs><title>Fichier 14</title><g id="Calque_2" data-name="Calque 2"><g id="Capa_1" data-name="Capa 1"><path class="cls-1" d="M16.43,23.31H6.55A6.62,6.62,0,0,1,0,16.67v-10A6.62,6.62,0,0,1,6.55,0h9.88A6.62,6.62,0,0,1,23,6.64v10A6.62,6.62,0,0,1,16.43,23.31ZM6.55.78A5.84,5.84,0,0,0,.77,6.64v10a5.84,5.84,0,0,0,5.78,5.86h9.88a5.84,5.84,0,0,0,5.78-5.86v-10A5.84,5.84,0,0,0,16.43.78Z"/><path class="cls-1" d="M16.43,21H6.55A4.29,4.29,0,0,1,2.3,16.67v-10A4.29,4.29,0,0,1,6.55,2.33h9.88a4.29,4.29,0,0,1,4.25,4.31v10A4.29,4.29,0,0,1,16.43,21ZM6.55,3.11A3.52,3.52,0,0,0,3.06,6.64v10A3.52,3.52,0,0,0,6.55,20.2h9.88a3.53,3.53,0,0,0,3.49-3.53v-10a3.53,3.53,0,0,0-3.49-3.53Z"/><path class="cls-1" d="M11.49,17.87a6.22,6.22,0,0,1,0-12.43,6.22,6.22,0,0,1,0,12.43Zm0-11.65a5.44,5.44,0,1,0,5.36,5.43A5.41,5.41,0,0,0,11.49,6.22Z"/><path class="cls-1" d="M11.49,15.93a4.28,4.28,0,1,1,4.21-4.28A4.23,4.23,0,0,1,11.49,15.93Zm0-7.77a3.5,3.5,0,1,0,3.45,3.49A3.45,3.45,0,0,0,11.49,8.16Z"/><path class="cls-1" d="M18.77,5.44A1.15,1.15,0,1,0,17.62,6.6a1.14,1.14,0,0,0,1.15-1.16"/></g></g></svg>