<svg xmlns="http://www.w3.org/2000/svg" viewBox="0 0 26.03 34.01"><defs><style>.cls-1{fill:#fff;}</style></defs><title>Fichier 17</title><g id="Calque_2" data-name="Calque 2"><g id="Capa_1" data-name="Capa 1"><path class="cls-1" d="M23.72,12.49h-.79V10.11A10,10,0,0,0,13,0,10,10,0,0,0,3.1,10.11v2.38H2.31A2.34,2.34,0,0,0,0,14.85v16.8A2.34,2.34,0,0,0,2.31,34H23.72A2.33,2.33,0,0,0,26,31.65V14.85A2.33,2.33,0,0,0,23.72,12.49ZM4.08,10.11A9,9,0,0,1,13,1,9,9,0,0,1,22,10.11v2.38H4.08Zm21,21.54A1.34,1.34,0,0,1,23.72,33H2.31A1.34,1.34,0,0,1,1,31.65V14.85A1.34,1.34,0,0,1,2.31,13.5H23.72a1.34,1.34,0,0,1,1.33,1.35Zm-11.39-14H12.38A1.3,1.3,0,0,0,11.1,19V24.1a1.3,1.3,0,0,0,1.28,1.31h1.28a1.29,1.29,0,0,0,1.27-1.31V19A1.29,1.29,0,0,0,13.66,17.68ZM14,24.1a.29.29,0,0,1-.29.3H12.38a.3.3,0,0,1-.3-.3V19a.3.3,0,0,1,.3-.3h1.28A.29.29,0,0,1,14,19Z"/></g></g></svg>