<?xml version="1.0" encoding="utf-8"?>
<!-- Generator: Adobe Illustrator 23.0.1, SVG Export Plug-In . SVG Version: 6.00 Build 0)  -->
<svg version="1.1" id="Capa_1" xmlns="http://www.w3.org/2000/svg" xmlns:xlink="http://www.w3.org/1999/xlink" x="0px" y="0px"
	 viewBox="0 0 35.9 36" style="enable-background:new 0 0 35.9 36;" xml:space="preserve">
<style type="text/css">
	.st0{fill:#FFFFFF;}
</style>
<g>
	<g>
		<path class="st0" d="M19.7,21.4l-2.7-1c0-0.1-0.1-0.2-0.1-0.2l-1.5-1.6c-0.1-0.1-0.2-0.1-0.4-0.1l0,0v-1.3
			c0.7-0.8,1.2-1.8,1.4-2.9H17c0.8,0,1.5-0.7,1.5-1.5v-1.5c0-0.8-0.7-1.5-1.5-1.5l0,0v-2c0-1.3-0.6-2.5-1.8-3.4
			C14.1,3.5,12.6,3,11,3S7.9,3.5,6.8,4.4S5,6.5,5,7.8v1.9l0,0c-0.8,0-1.5,0.7-1.5,1.5v1.5c0,0.8,0.7,1.5,1.5,1.5h0.6
			c0.2,1.1,0.7,2.1,1.4,2.9v1.3l0,0c-0.1,0-0.3,0-0.4,0.1l-1.5,1.6C5,20.2,5,20.2,5,20.3l-2.7,1c-1.4,0.5-2.4,1.9-2.3,3.5l0.4,10.6
			c0,0.3,0.2,0.5,0.5,0.5l0,0c0.3,0,0.5-0.2,0.5-0.5L0.9,24.9c0-0.3,0-0.7,0.1-1l1.7,1.7c0.5,0.5,0.7,1.2,0.7,1.9v8
			C3.5,35.8,3.7,36,4,36s0.5-0.2,0.5-0.5v-8c0-1-0.4-1.9-1-2.5l-1.9-1.9c0.3-0.3,0.6-0.6,1.1-0.7l2.8-1L7,24c0.2,0.4,0.6,0.6,1,0.7
			c0.4,0.1,0.8,0,1.2-0.3l0.9-0.7l0.2,0.3c0.2,0.2,0.5,0.4,0.8,0.4s0.6-0.1,0.8-0.4l0.2-0.3l0.9,0.7c0.3,0.2,0.6,0.3,0.9,0.3
			c0.1,0,0.2,0,0.3,0c0.4-0.1,0.8-0.3,1-0.7l1.6-2.7l2.8,1c0.4,0.2,0.8,0.4,1.1,0.7l-2.1,2c-0.7,0.7-1,1.6-1,2.5v8
			c0,0.3,0.2,0.5,0.5,0.5s0.5-0.2,0.5-0.5v-8c0-0.7,0.3-1.4,0.7-1.9l1.7-1.7c0.1,0.3,0.1,0.6,0.1,1l-0.4,10.6c0,0.3,0.2,0.5,0.5,0.5
			l0,0c0.3,0,0.5-0.2,0.5-0.5L22,24.9C22.1,23.4,21.2,21.9,19.7,21.4z M16.5,10.7H17c0.3,0,0.5,0.2,0.5,0.6v1.5
			c0,0.3-0.2,0.6-0.5,0.6h-0.5V10.7z M5.5,13.3H5c-0.3,0-0.5-0.2-0.5-0.6v-1.5c0-0.3,0.2-0.6,0.5-0.6h0.5V13.3z M6.5,13.3v-2.6h0.2
			c0.4,0,0.8-0.2,0.9-0.6c0.1-0.2,0-0.5-0.3-0.6c-0.2-0.1-0.5,0-0.6,0.3l0,0H6v-2C6,5.7,8.2,4,11,4s5.1,1.7,5.1,3.8v1.9h-0.7l0,0
			l-0.6-1.6c-0.2-0.6-0.8-1-1.4-1H8.7c-0.5,0-1,0.3-1.3,0.7c-0.1,0.3,0,0.6,0.2,0.8c0.2,0.1,0.5,0.1,0.6-0.2
			c0.1-0.2,0.3-0.3,0.5-0.3h4.7c0.2,0,0.4,0.1,0.5,0.3l0.6,1.6c0.1,0.4,0.5,0.6,0.9,0.6h0.2c0,0.4,0,0.8,0,1.2c0,0.6,0,1.2-0.1,1.8
			c-0.1,0.5-0.2,1-0.4,1.6c-0.1,0.4-0.4,0.8-0.7,1.2c-0.5,0.6-1.3,1.1-2.1,1.4C11.9,17.9,11.5,18,11,18C8.5,18,6.5,15.9,6.5,13.3z
			 M8.6,23.6c-0.1,0.1-0.3,0.1-0.4,0.1c-0.1,0-0.3-0.1-0.4-0.2l-1.7-2.9L7,19.7l2.5,3.2L8.6,23.6z M11,23.4L11,23.4L11,23.4l-3-3.9
			V18c0.9,0.6,1.9,1,3,1s2.2-0.4,3-1v1.5L11,23.4z M14.2,23.5c-0.1,0.1-0.2,0.2-0.4,0.2c-0.1,0-0.3,0-0.4-0.1l-0.9-0.7l2.5-3.2
			l0.9,0.9L14.2,23.5z M28.9,0c-3.9,0-7,3.1-7,7c0,0.9,0.2,1.8,0.5,2.6L20.7,13c-0.1,0.1,0,0.3,0,0.4c0.1,0.1,0.2,0.1,0.3,0.1h0.1
			l3.5-1c1.2,0.9,2.6,1.4,4.2,1.4c3.9,0,7-3.1,7-7C35.9,3.1,32.8,0,28.9,0z M28.9,13.3c-1.2,0-2.4-0.4-3.3-1l1.3-0.4
			c0.2-0.1,0.3-0.3,0.3-0.5c-0.1-0.2-0.3-0.3-0.5-0.3l-0.2,0.1l-1.7,0.5l-0.4,0.1L24,12l-2.2,0.6l1.1-2.2l0.2-0.4l0.2-0.4l0.6-1.1
			L24,8.4c0.1-0.2,0-0.4-0.2-0.5c-0.2-0.1-0.4,0-0.5,0.2L23,8.7c-0.1-0.5-0.2-1.1-0.2-1.7c0-3.5,2.8-6.3,6.3-6.3s6.3,2.8,6.3,6.3
			S32.4,13.3,28.9,13.3z M29.2,3.4c-0.8,0-1.6,0.2-2.3,0.6l0.5,1.1C28,4.8,28.6,4.6,29,4.6c0.3,0,0.5,0.1,0.7,0.2s0.2,0.3,0.2,0.5
			s-0.1,0.4-0.2,0.5C29.6,6,29.4,6.1,29,6.4c-0.4,0.3-0.6,0.5-0.7,0.7s-0.2,0.5-0.2,0.8v0.4h1.3V8c0-0.2,0-0.4,0.1-0.5
			s0.3-0.3,0.6-0.5c0.5-0.3,0.8-0.6,0.9-0.9c0.2-0.3,0.2-0.6,0.2-0.9c0-0.5-0.2-1-0.6-1.3C30.4,3.6,29.8,3.4,29.2,3.4z M28.9,9.1
			c-0.3,0-0.5,0.1-0.6,0.2C28.1,9.5,28,9.7,28,9.9c0,0.3,0.1,0.5,0.2,0.6s0.4,0.2,0.6,0.2c0.3,0,0.5-0.1,0.6-0.2
			c0.1-0.1,0.2-0.3,0.2-0.6s-0.1-0.5-0.2-0.6C29.3,9.2,29.1,9.1,28.9,9.1z"/>
	</g>
</g>
</svg>
