<svg xmlns="http://www.w3.org/2000/svg" viewBox="0 0 18.73 23.73"><defs><style>.cls-1{fill:#fff;}</style></defs><title>Fichier 15</title><g id="Calque_2" data-name="Calque 2"><g id="Capa_1" data-name="Capa 1"><path class="cls-1" d="M4.71,23.73a1,1,0,0,1-.29,0c-1.85-.5-.68-5.73-.67-5.78l1.59-6.75A6.06,6.06,0,0,1,5,9.06C5,6.77,6.38,5,8.19,5a2.48,2.48,0,0,1,2.48,2.69,11.48,11.48,0,0,1-.65,3c-.18.57-.36,1.17-.5,1.73a1.19,1.19,0,0,0,.21,1,1.33,1.33,0,0,0,1.07.49,2.79,2.79,0,0,0,2.27-1.64,9.05,9.05,0,0,0,1-4.42c0-2.6-1.7-4.15-4.55-4.15A5.33,5.33,0,0,0,4,9.1a3,3,0,0,0,.66,2A1.36,1.36,0,0,1,5,12.52l0,.21c-.07.28-.17.65-.21.82a1.21,1.21,0,0,1-1.66.83C1.15,13.59,0,11.5,0,8.78A8.51,8.51,0,0,1,2.51,2.87,10,10,0,0,1,9.89,0a9.08,9.08,0,0,1,6.39,2.46h0a7.9,7.9,0,0,1,2.45,5.65,11.06,11.06,0,0,1-2.06,6.75,7,7,0,0,1-5.59,2.81,4.92,4.92,0,0,1-2.72-.85L7.8,19C7.66,19.54,6.46,23.73,4.71,23.73Zm3.48-18c-1.37,0-2.44,1.45-2.44,3.3A5,5,0,0,0,6.11,11l0,.12-1.65,7c-.37,1.59-.58,4.66.11,4.84S6.54,20.64,7,18.83c.11-.4.48-1.88.72-2.8l.16-.65.49.47a4,4,0,0,0,2.67,1,6.19,6.19,0,0,0,5-2.5A10.25,10.25,0,0,0,18,8.11,7.08,7.08,0,0,0,15.74,3h0A8.33,8.33,0,0,0,9.89.79,9.26,9.26,0,0,0,3.06,3.42,7.75,7.75,0,0,0,.78,8.78c0,2.39,1,4.21,2.6,4.88A.43.43,0,0,0,4,13.35c0-.17.14-.54.21-.81l0-.22a.59.59,0,0,0-.18-.69A3.75,3.75,0,0,1,3.23,9.1,6.11,6.11,0,0,1,9.54,2.93c3.24,0,5.33,1.94,5.33,4.94a9.91,9.91,0,0,1-1.12,4.81,3.45,3.45,0,0,1-2.95,2,2.09,2.09,0,0,1-1.68-.78,2,2,0,0,1-.36-1.72c.14-.59.33-1.2.51-1.79a10.62,10.62,0,0,0,.62-2.75A1.7,1.7,0,0,0,8.19,5.76Z"/></g></g></svg>