<?xml version="1.0" encoding="utf-8"?>
<!-- Generator: Adobe Illustrator 23.0.1, SVG Export Plug-In . SVG Version: 6.00 Build 0)  -->
<svg version="1.1" id="Calque_1" xmlns="http://www.w3.org/2000/svg" xmlns:xlink="http://www.w3.org/1999/xlink" x="0px" y="0px"
	 viewBox="0 0 27.7 30" style="enable-background:new 0 0 27.7 30;" xml:space="preserve">
<title>Fichier 16</title>
<g>
	<path d="M25.6,8.7c-0.1-0.2-0.5-0.3-0.7-0.2c-0.2,0.1-0.3,0.5-0.2,0.7c2,3.1,2.5,7,1.5,10.5c-1,3.3-3.2,6-6.2,7.7
		c-3,1.6-6.5,2-9.8,1c-6.8-2-10.7-9.2-8.7-16C3.1,7,8.1,3.3,13.7,3.3l-1.8,2.6c-0.1,0.2-0.1,0.5,0.1,0.6c0.1,0.1,0.2,0.1,0.2,0.1
		c0.1,0,0.3-0.1,0.4-0.2L14.9,3C15,2.8,15,2.5,14.8,2.4l-3.4-2.3C11.2-0.1,11,0,10.8,0.2c-0.1,0.2-0.1,0.5,0.1,0.6l2.2,1.5
		C7.3,2.6,2.2,6.5,0.6,12.2c-2.2,7.3,2.1,15,9.4,17.2c1.3,0.4,2.6,0.6,3.9,0.6c6,0,11.5-3.9,13.3-10C28.3,16.2,27.7,12.1,25.6,8.7z"
		/>
	<path d="M10.2,11.7c-1.1,0-1.8,0.4-2.4,1.1C7.3,13.5,7,14.6,7,16.1c0,1.4,0.3,2.5,0.8,3.3c0.5,0.7,1.3,1.1,2.3,1.1
		c1.1,0,1.9-0.4,2.4-1.1s0.8-1.8,0.8-3.3c0-1.4-0.3-2.5-0.8-3.3C12,12.1,11.2,11.7,10.2,11.7z M11.7,18.8c-0.3,0.6-0.8,0.9-1.6,0.9
		c-0.7,0-1.2-0.3-1.6-0.8C8.2,18.3,8,17.4,8,16.2c0-1.2,0.2-2.1,0.5-2.7c0.3-0.6,0.8-0.8,1.6-0.8c0.7,0,1.2,0.3,1.6,0.9
		c0.3,0.6,0.5,1.5,0.5,2.7C12.2,17.3,12,18.2,11.7,18.8z"/>
	<path d="M14.4,15.7h1v0.5v0.3v0.2h-1v0.8h1.1c0.2,1,0.6,1.8,1.2,2.3c0.6,0.5,1.5,0.8,2.5,0.8c0.7,0,1.4-0.1,2.1-0.4v-0.9
		c-0.7,0.3-1.3,0.4-2,0.4s-1.3-0.2-1.8-0.6c-0.4-0.4-0.7-0.9-0.9-1.6h2.9v-0.8h-3v-0.3V16v-0.3h3.4v-0.8h-3.3
		c0.3-1.6,1.2-2.3,2.6-2.3c0.6,0,1.2,0.2,1.9,0.5l0.5-0.8c-0.7-0.4-1.5-0.6-2.4-0.6c-1,0-1.9,0.3-2.5,0.9c-0.6,0.6-1,1.4-1.2,2.4
		h-1.1V15.7z"/>
</g>
</svg>
