<?xml version="1.0" encoding="utf-8"?>
<!-- Generator: Adobe Illustrator 23.0.1, SVG Export Plug-In . SVG Version: 6.00 Build 0)  -->
<svg version="1.1" id="Calque_1" xmlns="http://www.w3.org/2000/svg" xmlns:xlink="http://www.w3.org/1999/xlink" x="0px" y="0px"
	 viewBox="0 0 523.5 110.3" style="enable-background:new 0 0 523.5 110.3;" xml:space="preserve">
<style type="text/css">
	.st0{fill:#FF0000;}
	.st1{fill:#FFFFFF;}
	.st2{fill:#E30613;}
</style>
<title>Fichier 7</title>
<g>
	<g id="Calque_1-2">
		<path class="st0" d="M276.2,84.1H408l-23.4,16.5c-8.6,6.1-22.6,9.7-37.5,9.7H164.6c-14.9,0-28.9-3.6-37.5-9.7l-23.4-16.5H276.2z"
			/>
		<path class="st1" d="M180.1,102.4l1.4-0.8c1,1.8,2.2,2.8,3.5,2.8c0.5,0,1.1-0.1,1.6-0.4c0.5-0.2,0.9-0.6,1.1-1
			c0.2-0.4,0.4-0.9,0.4-1.4c0-0.6-0.2-1.2-0.6-1.7c-0.8-1-1.8-1.9-2.9-2.7c-1-0.7-1.8-1.4-2.6-2.3c-0.6-0.7-0.9-1.6-0.9-2.6
			c0-0.7,0.2-1.4,0.5-2c0.3-0.6,0.9-1.1,1.5-1.4c0.6-0.3,1.3-0.5,2.1-0.5c0.8,0,1.5,0.2,2.2,0.6c0.9,0.6,1.6,1.3,2.2,2.1l-1.4,1
			c-0.4-0.6-1-1.2-1.6-1.6c-0.4-0.3-0.9-0.4-1.4-0.4c-0.6,0-1.2,0.2-1.6,0.6c-0.4,0.4-0.6,0.9-0.6,1.5c0,0.4,0.1,0.7,0.2,1.1
			c0.2,0.4,0.5,0.8,0.8,1.1c0.2,0.2,0.9,0.8,2.1,1.7c1.2,0.8,2.2,1.7,3,2.8c0.5,0.7,0.8,1.6,0.8,2.5c0,1.2-0.5,2.3-1.4,3.2
			c-0.9,0.9-2.1,1.4-3.4,1.3c-1,0-1.9-0.3-2.8-0.8C181.5,104.4,180.7,103.5,180.1,102.4z"/>
		<path class="st1" d="M216.6,88.8h3.4c1.3,0,2.6,0,3.9,0.3c0.9,0.2,1.7,0.7,2.3,1.4c1.2,1.6,1.2,3.9,0,5.5
			c-0.6,0.7-1.5,1.3-2.4,1.5c-1.4,0.2-2.8,0.3-4.2,0.3h-1.2v7.8h-1.7L216.6,88.8z M218.3,90.5v5.7h2.8c0.8,0,1.7-0.1,2.5-0.3
			c0.5-0.2,0.9-0.5,1.3-1c0.3-0.5,0.5-1,0.4-1.6c0-0.5-0.2-1.1-0.4-1.5c-0.3-0.5-0.7-0.8-1.2-1c-0.8-0.2-1.6-0.3-2.4-0.3L218.3,90.5
			z"/>
		<path class="st1" d="M261.5,88.4c2.4,0,4.7,0.9,6.3,2.6c3.4,3.4,3.5,8.9,0.1,12.4c-1.7,1.7-3.9,2.6-6.3,2.6
			c-2.3,0.1-4.6-0.9-6.3-2.5c-1.7-1.6-2.6-3.8-2.6-6.1c0-1.6,0.4-3.1,1.2-4.5C255.5,90.1,258.4,88.4,261.5,88.4L261.5,88.4z
			 M261.6,90c-1.2,0-2.5,0.4-3.5,1c-1.1,0.6-2,1.5-2.6,2.6c-0.6,1.1-0.9,2.4-0.9,3.7c0,3.9,3.1,7,6.9,7.1c0,0,0,0,0.1,0
			c1.3,0,2.5-0.3,3.6-0.9c1.1-0.6,2-1.5,2.6-2.6c0.6-1.1,0.9-2.4,0.9-3.6c0-1.3-0.3-2.5-0.9-3.6C266.5,91.4,264.1,90,261.6,90z"/>
		<path class="st1" d="M297.1,88.8h3.3c1.3,0,2.5,0,3.8,0.2c0.9,0.2,1.8,0.7,2.4,1.5c0.6,0.8,1,1.8,0.9,2.8c0,0.8-0.2,1.7-0.6,2.4
			c-0.4,0.7-1.1,1.2-1.8,1.6c-1,0.4-2.2,0.6-3.3,0.5l6,7.7h-2.1l-6-7.7h-1v7.7H297L297.1,88.8z M298.7,90.5v5.7h2.9
			c0.8,0,1.7-0.1,2.5-0.3c0.5-0.2,1-0.5,1.3-1c0.3-0.5,0.4-1,0.4-1.6c0-0.5-0.2-1.1-0.5-1.5c-0.3-0.4-0.7-0.8-1.2-1
			c-0.8-0.2-1.6-0.3-2.5-0.3L298.7,90.5z"/>
		<path class="st1" d="M332.6,90.5v-1.6h9.1v1.6H338v15h-1.7v-15L332.6,90.5z"/>
		<path class="st1" d="M329.3,0H161.2L99,50.3L37.4,0.5H0l78.5,61.3c0,0,9.3,7.9,20.4,7.9c10.6,0,21.6-9,21.6-9l53.4-43h140.9
			c4.7,0,4.6,2.6,4.6,2.6v30.9c0,2.5-4.5,2.6-4.5,2.6H211c-4.4,0-4.6-2.7-4.6-2.7V26.3h-28.3v33.1l0,0c0,5.8,8.3,10.6,18.6,10.6
			h132.6c18.6,0,18.6-11.8,18.6-11.8V10.6C347.9,4.7,339.6,0,329.3,0"/>
		<polygon class="st1" points="371,69.9 456.9,24.9 499.6,24.9 413.8,69.9 		"/>
		<path class="st2" d="M499.6,17.7h14.3C529.6,8.2,525.7,0,504.1,0"/>
		<polyline class="st0" points="504.1,0 359.8,0 359.8,17.7 499.6,17.7 		"/>
	</g>
</g>
</svg>
