<?xml version="1.0" encoding="utf-8"?>
<!-- Generator: Adobe Illustrator 23.0.1, SVG Export Plug-In . SVG Version: 6.00 Build 0)  -->
<svg version="1.1" id="Calque_1" xmlns="http://www.w3.org/2000/svg" xmlns:xlink="http://www.w3.org/1999/xlink" x="0px" y="0px"
	 viewBox="0 0 158 22" style="enable-background:new 0 0 158 22;" xml:space="preserve">
<g>
	<g>
		<path d="M99.4,0H48.7L29.9,15.8L11.3,0.1H0l23.7,19.3c0,0,2.8,2.5,6.2,2.5c3.2,0,6.5-2.8,6.5-2.8L52.5,5.6H95
			c1.4,0,1.4,0.8,1.4,0.8v9.7c0,0.8-1.4,0.8-1.4,0.8H63.7c-1.3,0-1.4-0.8-1.4-0.8V8.3h-8.6v10.4c0,1.8,2.5,3.3,5.6,3.3h40
			c5.6,0,5.6-3.7,5.6-3.7v-15C105,1.5,102.5,0,99.4,0z"/>
	</g>
	<g>
		<polygon points="112,22 124.9,22 150.8,7.8 137.9,7.8 		"/>
	</g>
	<g>
		<path d="M152.2,0h-43.6v5.6h46.5C159.9,2.6,158.7,0,152.2,0z"/>
	</g>
</g>
</svg>
