<?xml version="1.0" encoding="utf-8"?>
<!-- Generator: Adobe Illustrator 23.0.1, SVG Export Plug-In . SVG Version: 6.00 Build 0)  -->
<svg version="1.1" id="Calque_1" xmlns="http://www.w3.org/2000/svg" xmlns:xlink="http://www.w3.org/1999/xlink" x="0px" y="0px"
	 viewBox="0 0 523.5 70" style="enable-background:new 0 0 523.5 70;" xml:space="preserve">
<style type="text/css">
	.st0{fill:#FFFFFF;}
</style>
<title>Fichier 8</title>
<g>
	<g id="Calque_1-2">
		<path class="st0" d="M329.3,0H161.2L99,50.3L37.4,0.5H0l78.5,61.3c0,0,9.3,7.9,20.4,7.9c10.6,0,21.6-9,21.6-9l53.4-43h140.9
			c4.7,0,4.6,2.6,4.6,2.6v30.9c0,2.5-4.5,2.6-4.5,2.6H211c-4.4,0-4.6-2.7-4.6-2.7V26.3h-28.3v33.1c0,5.8,8.3,10.6,18.6,10.6h132.6
			c18.6,0,18.6-11.8,18.6-11.8V10.6C347.9,4.7,339.6,0,329.3,0z"/>
		<polygon class="st0" points="371,69.9 413.8,69.9 499.6,24.9 456.9,24.9 		"/>
		<path class="st0" d="M504.1,0H359.8v17.7h154.1C529.6,8.2,525.7,0,504.1,0z"/>
	</g>
</g>
</svg>
