<?xml version="1.0" encoding="utf-8"?>
<!-- Generator: Adobe Illustrator 23.0.1, SVG Export Plug-In . SVG Version: 6.00 Build 0)  -->
<svg version="1.1" id="Calque_1" xmlns="http://www.w3.org/2000/svg" xmlns:xlink="http://www.w3.org/1999/xlink" x="0px" y="0px"
	 viewBox="0 0 27 33" style="enable-background:new 0 0 27 33;" xml:space="preserve">
<style type="text/css">
	.st0{fill:#FFFFFF;}
</style>
<g>
	<path class="st0" d="M25,32.5C25,32.5,25,32.5,25,32.5L20.4,25L20,25.2c-2,1.2-4.2,1.8-6.5,1.8c-0.9,0-1.7-0.1-2.6-0.3
		c-7-1.4-11.6-8.4-10.2-15.6c0.7-3.5,2.7-6.5,5.6-8.4c2.1-1.5,4.6-2.2,7.2-2.2c0.9,0,1.7,0.1,2.6,0.3c3.4,0.7,6.3,2.7,8.3,5.7
		c1.9,2.9,2.6,6.5,1.9,10c-0.7,3.4-2.6,6.3-5.4,8.3l-0.4,0.3L25,32.5L25,32.5z M13.5,0.6c-2.5,0-5,0.8-7.1,2.2
		c-2.9,1.9-4.8,4.9-5.5,8.4C-0.6,18.3,4,25.2,10.9,26.7c0.9,0.2,1.7,0.3,2.6,0.3c2.5,0,5-0.8,7.1-2.2c2.9-1.9,4.8-4.9,5.5-8.4
		C27.6,9.2,23,2.3,16.1,0.9C15.2,0.7,14.3,0.6,13.5,0.6z"/>
	<path d="M13.5,0C10.8,0,8.3,0.8,6,2.3c-3,2-5,5.1-5.8,8.7c-1.5,7.4,3.3,14.7,10.6,16.2c0.9,0.2,1.8,0.3,2.7,0.3
		c2.4,0,4.7-0.6,6.7-1.8l4.3,7.1c0.1,0.2,0.3,0.3,0.5,0.3c0.1,0,0.2,0,0.3-0.1c0.3-0.2,0.3-0.5,0.2-0.8l-4.3-7.1
		c2.9-2,4.9-5.1,5.6-8.6c0.7-3.6,0-7.3-2-10.3c-2-3.1-5-5.1-8.6-5.9C15.3,0.1,14.4,0,13.5,0L13.5,0z M13.5,26.4
		c-0.8,0-1.7-0.1-2.5-0.3C4.3,24.8,0,18.1,1.3,11.3c0.7-3.3,2.5-6.2,5.3-8c2.1-1.4,4.4-2.1,6.8-2.1c0.8,0,1.7,0.1,2.5,0.3
		c6.7,1.4,11.1,8.1,9.7,14.9c-0.7,3.3-2.5,6.2-5.3,8C18.3,25.7,15.9,26.4,13.5,26.4L13.5,26.4z"/>
</g>
</svg>
