<?xml version="1.0" encoding="utf-8"?>
<!-- Generator: Adobe Illustrator 23.0.1, SVG Export Plug-In . SVG Version: 6.00 Build 0)  -->
<svg version="1.1" id="Capa_1" xmlns="http://www.w3.org/2000/svg" xmlns:xlink="http://www.w3.org/1999/xlink" x="0px" y="0px"
	 viewBox="-6 130.3 377.3 511.1" style="enable-background:new -6 130.3 377.3 511.1;" xml:space="preserve">
<g>
	<path d="M371.3,632.3l-30.6-343.6c-0.4-4.3-4-7.6-8.3-7.6H275v-58.5c0-50.9-41.4-92.3-92.3-92.3s-92.3,41.4-92.3,92.3v58.5H32.9
		c-4.3,0-7.9,3.3-8.3,7.6L-6,632.3c-0.2,2.3,0.6,4.7,2.2,6.4c1.6,1.7,3.8,2.7,6.2,2.7H363c2.3,0,4.6-1,6.2-2.7
		C370.8,636.9,371.5,634.6,371.3,632.3z M107.1,222.5c0-41.7,33.9-75.6,75.6-75.6c41.7,0,75.6,33.9,75.6,75.6v58.5H107.1V222.5z
		 M11.5,624.6l29.1-326.9h49.8V317c0,4.6,3.7,8.4,8.4,8.4s8.4-3.7,8.4-8.4v-19.2h151.1V317c0,4.6,3.7,8.4,8.4,8.4s8.4-3.7,8.4-8.4
		v-19.2h49.8l29.1,326.9H11.5z"/>
	<polygon points="245.6,578.8 270.4,578.8 320.1,552.5 295.3,552.5 	"/>
	<path d="M239.2,537.8v10.4h89.2c9.1-5.6,6.8-10.4-5.7-10.4H239.2z"/>
	<path d="M222.1,537.8h-97.3l-36,29.5l-35.7-29.2H31.5L76.9,574c0,0,5.4,4.6,11.8,4.6c6.1,0,12.5-5.3,12.5-5.3l30.9-25.1h81.5
		c2.7,0,2.7,1.5,2.7,1.5v18.1c0,1.5-2.6,1.5-2.6,1.5h-60.1c-2.5,0-2.6-1.6-2.6-1.6v-14.6h-16.4v19.4c0,3.4,4.8,6.2,10.8,6.2h76.7
		c10.8,0,10.8-6.9,10.8-6.9v-27.9C232.8,540.6,228,537.8,222.1,537.8z"/>
</g>
</svg>
